<?xml version="1.0"?>
<svg width="97" height="98" xmlns="http://www.w3.org/2000/svg" xmlns:svg="http://www.w3.org/2000/svg" enable-background="new 0 0 97 98" version="1.1" xml:space="preserve">

 <g class="layer">
  <title>Layer 1</title>
  <path d="m84.83,42.76c4.69,0.79 8.87,-0.42 12.89,-3.52c0.28,5.78 0.28,11.8 -0.1,18.28c-1.12,0.46 -1.87,0.46 -2.86,0.44c-0.22,-0.02 -0.68,-0.04 -0.89,-0.16c-0.78,-0.04 -1.35,0.05 -2.2,0.07c-0.74,-0.34 -1.21,-0.61 -1.72,-1.22c-1,-1.12 -1.95,-1.9 -2.97,-3c-0.69,-1.11 -1.32,-1.9 -1.96,-2.85c-0.01,-0.16 -0.04,-0.49 0.12,-0.7c-0.05,-1.2 -0.25,-2.19 -0.34,-3.37c0.15,-0.75 0.17,-1.31 0.34,-2.15c-0.02,-0.8 -0.16,-1.31 -0.31,-1.82m10.89,11.27c-0.14,0.08 -0.28,0.15 -0.43,0.23c0.13,0.03 0.28,0.13 0.36,0.09c0.15,-0.07 0.24,-0.22 0.44,-0.39c0,0 -0.1,0.03 -0.37,0.07z" fill="#95633A" id="svg_4" opacity="1"/>
  <path d="m98,84c0,4.87 0,9.74 0,15c-1.32,0 -2.66,0 -4.58,-0.37c-0.65,-2.32 -0.41,-4.36 -0.9,-6.2c-0.38,-1.45 -1.69,-3.79 -2.55,-3.77c-3.98,0.07 -7.95,0.83 -12.12,1.14c-0.47,-0.72 -0.73,-1.23 -0.86,-2c0.43,-0.77 0.72,-1.29 1.3,-1.81c2.43,-1.67 4.56,-3.35 6.69,-5.25c0.01,-0.24 0.03,-0.71 0.3,-0.63c0.76,0.34 1.25,0.61 1.64,1.11c1.7,1.11 3.43,2.32 5.32,2.76c1.83,0.42 3.83,0.04 5.76,0.02z" fill="#834215" id="svg_5" opacity="1"/>
  <path d="m78.05,90.01c3.97,-0.52 7.94,-1.28 11.92,-1.35c0.86,-0.02 2.17,2.32 2.55,3.77c0.49,1.84 0.25,3.88 0.4,6.2c-3.61,0.37 -7.31,0.37 -11.45,0.04c-0.82,-1.13 -1.19,-1.93 -1.54,-3.1c-0.61,-1.8 -1.23,-3.23 -1.86,-4.88c-0.01,-0.23 -0.02,-0.68 -0.02,-0.68z" fill="#7D390C" id="svg_6" opacity="1"/>
  <path d="m78.08,90.91c0.62,1.43 1.24,2.86 1.51,4.53c-3.51,-0.89 -5.59,-0.31 -5.59,3.56c-0.44,0 -0.89,0 -1.65,-0.35c-0.69,-1.42 -1.06,-2.5 -1.58,-3.76c-0.4,-0.43 -0.67,-0.62 -1.33,-0.82c-1.76,-0.4 -3.16,-0.73 -4.96,-1.05c-0.92,0.02 -1.45,0.03 -2.11,0.03c-0.14,0 -0.39,-0.12 -0.51,-0.35c-0.38,-0.7 -0.64,-1.17 -0.68,-1.72c0.47,-0.73 0.72,-1.38 1.16,-2.1c0.64,-1.36 1.09,-2.64 1.43,-4.15c-0.37,-0.73 -0.63,-1.21 -0.69,-1.79c0.77,-0.07 1.34,-0.03 2.23,0.13c2.44,0.74 4.57,1.34 6.42,2.02c-0.76,0.35 -1.25,0.63 -1.96,0.89c-0.23,-0.03 -0.68,-0.08 -0.74,-0.15c-0.07,-0.07 -0.38,0 -0.38,0c0,0 0.21,0.3 0.24,0.53c0.03,0.24 0.11,0.71 0.22,0.99c0.72,0.74 1.33,1.21 2.03,2.01c1.13,1.09 2.17,1.86 3.36,2.63c0.16,-0.01 0.47,0 0.63,0.2c1.09,-0.28 2.02,-0.78 2.95,-1.28z" fill="#985C32" id="svg_7" opacity="1"/>
  <path d="m6.93,36.08c-1.76,-1.15 -3.51,-2.29 -5.6,-3.26c-0.33,-0.57 -0.33,-1.32 0.01,-2.46c0.68,-0.79 1.02,-1.19 1.37,-1.58c-0.57,-0.26 -1.14,-0.52 -1.71,-0.78c0,-1.07 0,-2.13 0,-3.6c1.19,-1.23 2.39,-2.06 3.74,-3c1.7,0.46 3.68,1 5.85,1.83c-0.05,0.7 -0.29,1.12 -0.88,1.6c-0.6,0.1 -0.84,0.14 -1.2,0.29c0.05,0.71 0.22,1.29 0.43,1.86c0.03,0 0.01,0.06 0,0.35c0.02,0.69 0.04,1.08 0.07,1.87c0.05,1.18 0.08,1.96 -0.11,2.97c-0.75,1.39 -1.28,2.55 -1.84,3.76c-0.05,0.05 -0.13,0.15 -0.13,0.15z" fill="#675F56" id="svg_8" opacity="1"/>
  <path d="m94.99,57.98c0.76,0 1.51,0 2.63,0.01c0.38,5.36 0.38,10.72 0.15,16.35c-1.74,0.04 -3.25,-0.18 -4.76,-0.63c0,-0.23 -0.01,-0.67 0.06,-0.79c0.17,-0.38 0.13,-0.62 -0.36,-0.91c-0.72,-0.99 -1.54,-2.72 -1.47,-2.75c4.94,-2.58 2.87,-7.43 3.75,-11.28z" fill="#83522E" id="svg_9" opacity="1"/>
  <path d="m98,83.56c-1.93,0.46 -3.93,0.84 -5.76,0.42c-1.89,-0.44 -3.62,-1.65 -5.08,-2.86c0.16,-1.6 -0.01,-2.85 0.17,-4.18c1.92,-0.04 3.49,0.14 5.04,0c1.89,-0.18 3.75,-0.62 5.63,-0.94c0,2.37 0,4.74 0,7.56z" fill="#814820" id="svg_10" opacity="1"/>
  <path d="m98,75.75c-1.88,0.57 -3.74,1.01 -5.63,1.19c-1.55,0.14 -3.12,-0.04 -5.26,-0.01c-0.58,0.06 -1.02,0.05 -1.17,-0.24c-0.45,-1.06 -0.76,-1.85 -0.79,-2.64c0.47,-0.03 0.65,-0.04 1.09,-0.04c0.43,0 0.6,0 1.09,0.12c2.11,0.02 3.89,-0.09 5.68,-0.2c1.51,0.23 3.02,0.45 4.76,0.87c0.23,0.2 0.23,0.7 0.23,0.95m-3.04,-0.19c0,0 -0.03,-0.08 0,0z" fill="#925830" id="svg_11" opacity="1"/>
  <path d="m74.44,99c-0.44,-3.87 1.64,-4.45 5.14,-3.19c0.7,0.93 1.07,1.73 1.43,2.86c-2.05,0.33 -4.09,0.33 -6.57,0.33z" fill="#915D39" id="svg_12" opacity="1"/>
  <path d="m61,99c-1.39,0 -2.78,0 -4.6,-0.11c-0.44,-0.12 -0.41,-0.35 -0.28,-0.68c1.11,-1.25 2.09,-2.18 3.37,-3.13c0.71,-0.06 1.11,-0.09 1.89,-0.1c0.64,0.04 0.89,0.04 1.19,0.06c0.04,0.03 0.15,0.15 0.09,0.5c-0.59,1.39 -1.13,2.43 -1.66,3.46z" fill="#B08A6B" id="svg_13" opacity="1"/>
  <path d="m39.38,99c0.3,-2.09 0.97,-4.18 1.64,-6.91c-0.01,-0.81 -0.01,-0.99 0.25,-1.15c0.24,0.02 0.73,0.03 0.86,0.22c0.33,0.45 0.56,0.67 0.84,1.11c0.06,0.61 0.1,0.96 0.16,1.68c0.64,1.3 1.27,2.23 1.65,3.35c-1.08,0.68 -1.93,1.19 -2.78,1.7c-0.75,0 -1.5,0 -2.62,0z" fill="#5A581B" id="svg_14" opacity="1"/>
  <path d="m54,99c-0.75,0 -1.5,0 -2.75,-0.19c-0.7,-0.45 -0.94,-0.65 -1.23,-0.8c-0.02,-0.01 0,0.01 0.04,-0.31c0.07,-0.76 0.08,-1.19 0.25,-1.79c0.35,-0.41 0.53,-0.65 1,-0.77c0.94,0.38 1.57,0.63 2.26,0.93c0.06,0.04 0.23,0.28 0.23,0.72c0.06,1.04 0.13,1.62 0.2,2.21z" fill="#AD6E3A" id="svg_15" opacity="1"/>
  <path d="m70.93,95.08c0.36,1.07 0.73,2.15 1.08,3.57c-0.45,0.35 -0.9,0.35 -1.77,0.09c-0.73,-0.73 -1.02,-1.2 -1.16,-1.93c0.41,-0.78 0.66,-1.31 0.91,-1.82c0,0.02 -0.03,-0.01 0.21,0.02c0.24,0.03 0.73,0.07 0.73,0.07z" fill="#AA7C60" id="svg_16" opacity="1"/>
  <path d="m61.4,99c0.13,-1.03 0.67,-2.07 1.56,-3.12c0.58,0.19 0.8,0.39 1.15,0.84c0.38,0.92 0.64,1.6 0.89,2.28c-1.07,0 -2.13,0 -3.6,0z" fill="#99673B" id="svg_17" opacity="1"/>
  <path d="m42.42,99c0.43,-0.51 1.28,-1.02 2.41,-1.75c0.29,-0.23 0.38,-0.32 0.67,-0.3c0.68,0.03 1.07,0.04 1.5,0.27c0.05,0.21 0.24,0.6 0.18,0.9c-0.1,0.49 -0.14,0.68 -0.18,0.88c-1.39,0 -2.78,0 -4.58,0z" fill="#71650F" id="svg_18" opacity="1"/>
  <path d="m68.92,97.07c0.3,0.47 0.59,0.94 0.98,1.67c-0.34,0.26 -0.79,0.26 -1.73,0.01c-1.02,-1.09 -1.53,-1.93 -1.82,-2.78c0.22,-0.01 0.68,-0.02 0.92,0.12c0.71,0.42 1.18,0.7 1.65,0.98z" fill="#893F09" id="svg_19" opacity="1"/>
  <path d="m66.12,95.98c0.52,0.84 1.03,1.68 1.71,2.77c-0.58,0.25 -1.33,0.25 -2.45,0.25c-0.63,-0.68 -0.89,-1.36 -0.89,-2.35c0.49,-0.43 0.72,-0.55 1.12,-0.68c0.17,0 0.51,0.01 0.51,0.01z" fill="#A16B4A" id="svg_20" opacity="1"/>
  <path d="m1,28.33c0.57,-0.07 1.14,0.19 1.71,0.45c-0.35,0.39 -0.69,0.79 -1.37,1.2c-0.34,-0.42 -0.34,-0.87 -0.34,-1.65z" fill="#000000" id="svg_21" opacity="1"/>
  <path d="m54.33,99c-0.4,-0.59 -0.47,-1.17 -0.24,-1.94c0.84,0.38 1.37,0.93 1.9,1.48c0,0 -0.03,0.23 -0.01,0.35c-0.42,0.11 -0.87,0.11 -1.65,0.11z" fill="#C4987B" id="svg_22" opacity="1"/>
  <path d="m47.38,99c-0.34,-0.2 -0.3,-0.39 0.14,-0.84c1.1,-0.22 1.8,-0.18 2.5,-0.14c0,0 -0.02,-0.02 -0.02,0.23c0,0.26 0,0.75 0,0.75c-0.75,0 -1.5,0 -2.62,0z" fill="#88745D" id="svg_23" opacity="1"/>
  <path d="m50.25,99c-0.25,0 -0.25,-0.49 -0.24,-0.74c0.3,-0.1 0.54,0.1 0.86,0.55c0.13,0.19 -0.37,0.19 -0.62,0.19z" fill="#B77F59" id="svg_24" opacity="1"/>
  <path d="m23.85,29.17c8.28,-2.03 16.55,-4.1 24.85,-6.05c1.2,-0.28 2.54,0.09 4.17,0.47c0.62,0.98 0.9,1.63 0.83,2.35c-1.47,0.44 -2.58,0.81 -4.11,1.15c-1.81,-0.02 -3.21,0.01 -4.97,0.03c-1.81,0.63 -3.26,1.28 -5.14,1.92c-3.67,0.62 -8.89,-2.06 -8.65,5.06c-0.85,1.2 -1.54,2.09 -2.2,2.61c-1.57,-2.76 -3.17,-5.15 -4.78,-7.54z" fill="#615B4F" id="svg_25" opacity="1"/>
  <path d="m23.55,28.98c1.91,2.58 3.51,4.97 4.93,7.84c-0.35,0.69 -0.45,0.92 -0.84,1.14c-2.09,-1.1 -3.84,-2.15 -5.81,-3.43c-1.43,-0.67 -2.63,-1.1 -4.03,-1.74c-0.71,-0.47 -1.23,-0.72 -1.86,-1.17c-0.32,-0.46 -0.59,-0.61 -1.18,-0.85c-2.11,-1.37 -3.96,-2.55 -5.81,-3.73c0,0 0.02,-0.06 -0.11,-0.38c-0.15,-0.76 -0.18,-1.21 -0.21,-1.66c0.24,-0.03 0.48,-0.07 1.34,-0.11c1.43,0.02 2.24,0.06 3.05,0.09c3.41,1.27 6.82,2.54 10.53,4z" fill="#BD9778" id="svg_26" opacity="1"/>
  <path d="m80.82,24.8c0.5,-0.24 1.01,-0.49 2.07,-0.86c1.41,-0.38 2.28,-0.63 3.14,-0.51c-1.51,1.78 -2.86,3.43 -4.55,4.59c-5.37,3.67 -10.09,8.85 -17.62,7.95c-0.09,-0.08 -0.34,-0.08 -0.22,-0.33c1.21,-1.33 2.3,-2.42 3.75,-3.57c3.8,-2.17 7.24,-4.27 10.68,-6.37c0,0 0.32,-0.06 0.8,-0.01c0.71,0.01 0.93,-0.02 1.35,-0.12c0.47,-0.22 0.6,-0.46 0.6,-0.77z" fill="#C1916E" id="svg_27" opacity="1"/>
  <path d="m78,25.43c-3.37,2.37 -6.81,4.47 -10.71,6.32c-1.74,-2.02 -3.01,-3.8 -4.28,-5.57c3.98,-0.71 7.94,-1.52 11.94,-2.05c0.93,-0.13 1.98,0.66 3.05,1.3z" fill="#574E3B" id="svg_28" opacity="1"/>
  <path d="m97.07,24.79c-3.3,2.49 -6.81,4.74 -10.66,6.77c0.04,-1.64 0.41,-3.06 0.94,-4.69c0.39,-0.69 0.62,-1.18 1.02,-1.74c0.26,-0.45 0.34,-0.81 0.43,-1.18c-0.3,0.32 -0.6,0.63 -1.11,0.72c-0.45,-0.95 -0.7,-1.69 -0.65,-2.49c2.57,0.18 4.84,0.44 7.11,0.71c0.9,0.55 1.8,1.11 2.92,1.9z" fill="#5A5231" id="svg_29" opacity="1"/>
  <path d="m62.78,26.09c1.5,1.86 2.77,3.64 4.15,5.73c-0.99,1.4 -2.08,2.49 -3.66,3.85c-0.73,0.31 -0.98,0.33 -1.53,0.36c-1.15,-1.27 -3.93,3.84 -3.43,-1.16c1.17,-0.76 2.09,-1.38 3.01,-1.99c-0.44,-0.08 -0.88,-0.15 -1.33,-0.23c0,-2.52 0,-5.03 0.25,-7.59c0.42,-0.06 0.59,-0.08 0.76,-0.1c0,0 0.04,0.02 0.02,0.3c0.11,0.85 0.23,1.41 0.56,2.97c0.31,-1.52 0.39,-1.94 0.48,-2.36c0.16,0.04 0.32,0.09 0.72,0.22z" fill="#714524" id="svg_30" opacity="1"/>
  <path d="m94.13,22.68c-2.25,-0.06 -4.52,-0.32 -7.21,-0.38c-0.58,0.39 -0.74,0.58 -0.89,0.77c-0.86,0.24 -1.73,0.49 -2.93,0.68c-0.25,-0.46 -0.17,-0.87 0.22,-1.61c0.38,-0.88 0.47,-1.43 0.55,-1.97c0.56,-0.31 1.13,-0.62 2.19,-0.75c1.25,0.24 2.02,0.31 3.16,0.38c0.88,0.01 1.38,0.02 2.05,0.31c1.07,0.84 1.98,1.4 2.89,1.96c0,0 -0.05,0.41 -0.03,0.61z" fill="#524B33" id="svg_31" opacity="1"/>
  <path d="m60.79,24.75c0.04,0.23 -0.13,0.25 -0.85,0.35c-1.34,0.39 -2.11,0.69 -3.27,0.97c-1.17,-0.01 -1.95,0.01 -2.71,-0.02c0.03,-0.06 0.09,-0.17 0.09,-0.17c-0.28,-0.66 -0.56,-1.31 -0.85,-2.23c1.41,-0.39 2.83,-0.53 4.81,-0.52c0.71,0.29 0.88,0.43 1.07,0.55c0.5,0.29 1.01,0.57 1.71,1.07z" fill="#59593F" id="svg_32" opacity="1"/>
  <path d="m94.46,21.92c-1.21,-0.41 -2.12,-0.97 -3.02,-1.98c0.49,-0.9 0.96,-1.35 1.44,-1.8c2.96,0 3.9,1.04 1.58,3.78z" fill="#5D5544" id="svg_33" opacity="1"/>
  <path d="m92.48,18.09c-0.08,0.5 -0.55,0.95 -1.2,1.57c-0.68,0.16 -1.18,0.15 -2.04,-0.13c-0.36,-0.64 -0.36,-1 -0.36,-1.36c1.07,-0.05 2.14,-0.09 3.6,-0.08z" fill="#5B504A" id="svg_34" opacity="1"/>
  <path d="m12.97,24.66c-0.76,0.29 -1.57,0.25 -2.65,0.17c-0.02,-0.48 0.22,-0.9 0.56,-1.54c0.75,0.2 1.4,0.62 2.09,1.37z" fill="#5E5D4F" id="svg_35" opacity="1"/>
  <path d="m88.59,18.16c0.29,0.37 0.29,0.73 0.27,1.37c-0.78,0.2 -1.55,0.13 -2.49,-0.18c0.53,-0.55 1.23,-0.87 2.22,-1.19z" fill="#808080" id="svg_36" opacity="1"/>
  <path d="m61.95,25.66c0.02,0.63 -0.06,1.05 -0.37,2.57c-0.33,-1.56 -0.45,-2.12 -0.57,-2.95c0.34,-0.24 0.61,-0.1 0.94,0.38z" fill="#7C4F2B" id="svg_37" opacity="1"/>
  <path d="m83.59,20.13c0.2,0.58 0.11,1.13 -0.19,1.7c-0.18,-0.56 -0.14,-1.15 0.19,-1.7z" fill="#787070" id="svg_38" opacity="1"/>
  <path d="m59.02,23.51c-0.13,0.05 -0.3,-0.09 -0.58,-0.36c0.16,-0.14 0.36,-0.03 0.58,0.36z" fill="#7C4F2B" id="svg_39" opacity="1"/>
  <path d="m78.92,25c0.36,-0.24 0.71,-0.47 0.91,-0.48c-0.41,0.31 -0.66,0.39 -0.91,0.48z" fill="#524B33" id="svg_40" opacity="1"/>
  <path d="m78.82,25.13c0.35,-0.22 0.6,-0.3 1.22,-0.52c0.38,-0.14 0.44,-0.11 0.31,0.19c-0.19,0.47 -0.26,0.65 -0.33,0.84c-0.22,0.03 -0.44,0.06 -0.99,0.03c-0.33,-0.07 -0.32,-0.41 -0.21,-0.54z" fill="#574E3B" id="svg_41" opacity="1"/>
  <path d="m80.22,25.57c-0.13,-0.12 -0.06,-0.3 0.13,-0.74c0.12,-0.27 0.36,-0.25 0.41,-0.14c0.06,0.42 -0.07,0.66 -0.54,0.88z" fill="#514B3A" id="svg_42" opacity="1"/>
  <path d="m25.91,67.04c-5.24,-1.43 -5.22,-6.84 -7.43,-10.6c2.87,0.7 5.41,3.26 8.04,-0.19c2.26,1.39 4.33,2.54 6.59,3.85c0.42,0.4 0.63,0.66 0.49,1.02c-1.09,0.64 -1.88,1.23 -2.88,2.08c-1.73,1.46 -3.27,2.65 -4.81,3.84z" fill="#6A6B5E" id="svg_43" opacity="1"/>
  <path d="m26.32,56.01c-2.43,3.69 -4.97,1.13 -7.8,0.07c-0.63,-2.14 -0.94,-4.23 -1.12,-6.8c1.26,-0.75 2.4,-1.01 3.73,-1.02c1.5,0.71 2.82,1.17 4.35,1.78c0.64,0.42 1.06,0.7 1.43,1.34c-0.23,1.78 -0.41,3.21 -0.59,4.63z" fill="#5D5A53" id="svg_44" opacity="1"/>
  <path d="m25.95,67.41c1.5,-1.56 3.04,-2.75 4.84,-3.86c0.94,1.55 1.61,3.01 2.19,4.85c-0.35,2.11 -0.61,3.85 -1.12,5.78c-0.81,0.78 -1.39,1.37 -1.96,1.96c-1.3,-2.78 -2.61,-5.57 -3.95,-8.73z" fill="#605E50" id="svg_45" opacity="1"/>
  <path d="m29.93,76.49c0.54,-0.94 1.12,-1.53 2.1,-2.29c0.4,-0.17 0.74,-0.15 0.86,0.13c0.48,0.72 0.85,1.16 1.19,1.99c0.35,1.45 0.72,2.53 1.27,3.76c0.58,0.4 0.97,0.66 1.43,1.29c1.02,2.26 1.97,4.15 2.94,6.18c0.01,0.16 0.14,0.43 0.2,0.72c0.39,0.77 0.73,1.24 1.06,1.73c0,0.01 0.01,0.02 0,0.25c-0.01,0.23 0.04,0.68 0.04,0.68c-0.01,0.17 -0.01,0.35 -0.03,0.79c-3.68,-4.79 -7.36,-9.84 -11.06,-15.23z" fill="#524E25" id="svg_46" opacity="1"/>
  <path d="m20.94,48.01c-1.14,0.26 -2.28,0.52 -3.74,0.92c-2.95,-2.61 -5.58,-5.37 -7.99,-8.62c2.09,-0.13 3.97,0.24 6.17,0.66c0.77,0.09 1.21,0.14 1.7,0.49c0.67,1.06 1.28,1.82 2.04,2.82c0.75,0.73 1.33,1.22 1.95,1.89c0.02,0.19 0.08,0.57 0.02,0.88c-0.08,0.53 -0.12,0.74 -0.15,0.96z" fill="#6B665F" id="svg_47" opacity="1"/>
  <path d="m15.05,40.93c-1.87,-0.38 -3.75,-0.75 -5.87,-0.99c-0.85,-0.65 -1.46,-1.43 -1.73,-2.43c3.48,0.74 3.4,-1.46 3.54,-3.48c0.01,-0.02 0.04,-0.06 0.32,-0.06c0.46,-0.01 0.64,-0.02 1.11,0.13c1.09,0.41 1.9,0.67 2.93,1.07c0.69,0.33 1.16,0.54 1.61,1.05c-0.31,1.08 -0.59,1.84 -1.12,2.63c-0.43,0.72 -0.61,1.4 -0.79,2.08z" fill="#646052" id="svg_48" opacity="1"/>
  <path d="m10.98,34.05c-0.13,2 -0.05,4.2 -3.48,3.12c-0.35,-0.28 -0.41,-0.44 -0.52,-0.85c-0.05,-0.24 0.03,-0.34 0.31,-0.45c1.41,-0.69 2.55,-1.25 3.69,-1.82z" fill="#675F56" id="svg_49" opacity="1"/>
  <path d="m77.08,41.07c-0.31,0.45 -0.61,0.91 -1.09,1.93c-1.12,1.7 -2.07,2.83 -3.37,4c-2.78,1.7 -5.19,3.36 -7.95,5.08c-1.79,1.32 -3.24,2.6 -4.69,3.89c0.01,0.02 -0.01,-0.02 -0.27,-0.21c-2.41,-0.4 -4.57,-0.59 -6.89,-0.93c-1.04,-0.75 -1.92,-1.36 -2.66,-2.25c1.35,-1.68 2.54,-3.08 3.84,-4.28c0.23,0.46 0.41,0.69 0.81,1.13c0.89,0.6 1.6,0.96 2.68,1.43c1.42,0.04 2.45,-0.02 3.75,-0.12c0.75,-0.29 1.23,-0.55 1.95,-0.98c0.67,-1.18 1.09,-2.2 1.51,-3.22c-0.48,0.25 -0.95,0.5 -1.5,0.41c-0.77,-1.22 -1.47,-2.09 -2.15,-3.38c0.01,-1.78 0.01,-3.15 0,-4.52c0.01,-0.01 0.03,0.02 0.33,-0.09c1.16,-0.73 2.03,-1.36 3.14,-1.81c3.93,0.35 7.61,0.53 11.36,1.07c0.44,1.18 0.82,2.01 1.2,2.85z" fill="#763C15" id="svg_50" opacity="1"/>
  <path d="m77.36,40.91c-0.66,-0.68 -1.04,-1.51 -1.44,-2.91c-0.01,-0.56 0.07,-0.98 0.38,-1.01c1.35,-0.36 2.38,-0.69 3.63,-1.1c-0.67,-1.1 -1.16,-1.9 -1.32,-2.81c3.07,-2.06 5.82,-4.03 8.57,-6c-0.36,1.42 -0.73,2.84 -1.08,4.64c-0.34,0.81 -0.68,1.24 -1.42,2.07c-1.19,1.3 -1.99,2.21 -2.79,3.11c-1.42,1.29 -2.83,2.57 -4.53,4.01z" fill="#864B2A" id="svg_51" opacity="1"/>
  <path d="m72.97,46.97c0.95,-1.14 1.9,-2.27 2.96,-3.71c1.87,-0.24 3.64,-0.19 6,-0.25c0.75,-0.18 0.91,-0.26 1.07,-0.33c0,0 0.06,0.18 -0.01,0.51c-0.06,0.33 -0.17,0.79 -0.48,0.91c-3.02,1.67 -5.71,3.22 -8.58,4.96c-0.41,0.41 -0.66,0.62 -0.92,0.43c0,-1.08 -0.02,-1.8 -0.04,-2.52z" fill="#4D4128" id="svg_52" opacity="1"/>
  <path d="m82.2,36.87c0.49,-0.87 1.29,-1.78 2.37,-2.82c-0.5,0.84 -1.28,1.82 -2.37,2.82z" fill="#413908" id="svg_53" opacity="1"/>
  <path d="m84.73,42.75c0.25,0.52 0.39,1.03 0.16,1.88c-0.55,0.37 -0.72,0.39 -0.86,0.05c0.09,-0.83 0.16,-1.3 0.23,-1.78c0,0 0.37,-0.16 0.47,-0.15z" fill="#271D08" id="svg_54" opacity="1"/>
  <path d="m83.94,42.9c0.25,0.48 0.18,0.95 0.02,1.98c-0.27,0.81 -0.5,0.97 -0.85,0.72c-0.13,-0.75 -0.21,-1.19 -0.29,-1.62c0,0 0.11,-0.46 0.15,-0.7c0.24,-0.28 0.45,-0.33 0.97,-0.38z" fill="#685038" id="svg_55" opacity="1"/>
  <path d="m82.86,42.65c-0.02,0.1 -0.18,0.18 -0.6,0.31c-0.08,-0.18 0.16,-0.31 0.6,-0.31z" fill="#271D08" id="svg_56" opacity="1"/>
  <path d="m93.01,73.71c-1.79,0.33 -3.57,0.44 -5.8,0.35c-0.72,-0.28 -0.98,-0.23 -1.22,-0.06c-0.19,0.01 -0.37,0.02 -1.15,0.05c-1.22,0 -1.85,-0.02 -2.56,-0.05c-0.08,-0.02 -0.25,-0.07 -0.26,-0.43c-0.01,-1.1 -0.01,-1.83 0.39,-2.56c6.07,-0.37 7.13,-1.9 4.59,-6.27c0,-0.44 0,-0.62 0.06,-1.03c-0.32,-2.37 -0.69,-4.5 -1.12,-6.92c1.54,0.08 2.79,0.14 4.05,0.2c0.47,0.27 0.94,0.54 1.88,1.01c1.04,0.11 1.62,0.01 2.21,-0.08c0,0 0.46,0.02 0.68,0.04c-0.65,3.87 1.42,8.72 -3.52,11.3c-0.07,0.03 0.75,1.76 1.46,2.99c0.31,0.3 0.3,0.79 0.3,0.79c0,0 0.01,0.44 0.01,0.67z" fill="#86552F" id="svg_57" opacity="1"/>
  <path d="m89.95,56.65c-1.22,0.28 -2.47,0.22 -4.01,0.14c0.43,2.42 0.8,4.55 0.88,6.93c-0.31,0.24 -0.8,0.25 -1.11,0.29c-1.09,0.34 -1.87,0.65 -2.73,0.68c-0.08,-1.41 -0.08,-2.55 -0.39,-3.89c-2.07,-0.39 -3.83,-0.59 -5.57,-1.04c0.78,-0.52 1.55,-1.04 2.3,-1.02c2.86,0.08 3.62,-1.18 2.88,-3.76c0.23,-0.03 0.69,-0.08 1.01,-0.13c1.15,-0.35 1.98,-0.65 3.06,-0.94c0.43,0.03 0.6,0.05 0.77,0.06c0.96,0.78 1.91,1.56 2.91,2.68z" fill="#824824" id="svg_58" opacity="1"/>
  <path d="m84.98,50.31c0,0 0.03,0.33 -0.2,0.49c-0.23,0.17 -0.7,0.18 -0.93,0.37c-0.43,0.73 -0.64,1.28 -1.17,1.81c-0.75,-0.03 -1.17,-0.04 -1.7,-0.32c-0.38,-0.73 -0.68,-1.2 -0.98,-1.92c0,-0.24 0,-0.74 0.39,-0.73c1.15,0 1.93,-0.01 3.01,0.03c0.74,0.12 1.16,0.19 1.58,0.27z" fill="#8E5A35" id="svg_59" opacity="1"/>
  <path d="m85.14,50.1c-0.58,0.13 -1,0.06 -1.8,-0.38c-0.49,-0.77 -0.61,-1.18 -0.52,-1.75c0.46,-0.38 0.72,-0.61 1.19,-0.89c0.23,-0.05 0.68,-0.16 0.68,-0.16c0.2,0.99 0.4,1.98 0.45,3.18z" fill="#9E775D" id="svg_60" opacity="1"/>
  <path d="m84.08,50.98c0,0 0.47,-0.01 0.71,-0.01c0.87,0.78 1.5,1.57 2.19,2.68c-0.11,0.31 -0.28,0.29 -0.72,0.04c-0.27,-0.25 -0.29,-0.71 -0.46,-0.92c-0.69,-0.74 -1.21,-1.27 -1.72,-1.79z" fill="#86552F" id="svg_61" opacity="1"/>
  <path d="m84.8,46.73c-0.11,0.19 -0.56,0.3 -1.2,0.38c-0.91,0.1 -1.19,0.12 -1.21,-0.19c0.43,-0.55 0.61,-0.77 0.78,-0.99c0.29,-0.08 0.52,-0.24 0.76,-0.69c0.24,-0.22 0.41,-0.24 0.82,-0.32c0.22,0.5 0.2,1.06 0.05,1.81z" fill="#B18968" id="svg_62" opacity="1"/>
  <path d="m93.87,57.8c-0.38,0.21 -0.96,0.31 -1.74,0.27c0.39,-0.22 0.96,-0.31 1.74,-0.27z" fill="#83522E" id="svg_63" opacity="1"/>
  <path d="m96.01,54.01c-0.12,0.12 -0.21,0.27 -0.36,0.34c-0.08,0.04 -0.23,-0.06 -0.36,-0.09c0.15,-0.08 0.29,-0.15 0.57,-0.24c0.14,-0.02 0.15,-0.01 0.15,-0.01z" fill="#83522E" id="svg_64" opacity="1"/>
  <path d="m96,53.99c-0.01,0 0.09,-0.03 0.05,-0.01c-0.04,0.03 -0.05,0.02 -0.05,0.01z" fill="#83522E" id="svg_65" opacity="1"/>
  <path d="m72,85.01c-2.12,-0.6 -4.25,-1.2 -6.69,-2.29c-0.34,-1.18 -0.35,-1.89 -0.03,-2.63c0.79,-0.09 1.24,-0.14 1.89,-0.1c0.45,-0.57 0.69,-1.23 1.25,-1.99c1.37,-1.09 2.42,-2.07 3.51,-3.29c0.04,-0.22 0.1,-0.68 0.27,-0.9c0.39,-0.72 0.6,-1.23 1.07,-1.74c0.43,0.01 0.6,0.01 0.96,0.28c1.72,1.75 3.24,3.25 4.86,5c-0.3,3.04 -0.7,5.85 -1.1,8.65c-0.28,0.51 -0.57,1.03 -1.32,1.76c-1.53,-0.45 -2.6,-1.12 -3.67,-1.94c-0.33,-0.37 -0.67,-0.59 -1,-0.81m0.05,-3.5c0,0 -0.04,0.04 0,0z" fill="#8C542D" id="svg_66" opacity="1"/>
  <path d="m78.29,85.99c0.1,-2.79 0.5,-5.6 1.16,-8.68c0.98,-0.31 1.7,-0.33 2.84,-0.35c1.54,0.02 2.67,0.02 3.8,0.02c0,0 0.44,0.01 0.66,0.03c0.4,1.26 0.57,2.51 0.51,3.87c-0.73,-0.16 -1.22,-0.43 -2.19,-0.77c-0.77,0.14 -1.06,0.34 -1.36,0.54c0.42,0.11 0.84,0.22 1.26,0.32c-2.12,1.67 -4.25,3.35 -6.68,5.02z" fill="#8B4C1C" id="svg_67" opacity="1"/>
  <path d="m73,85.98c1.07,0.66 2.14,1.33 3.53,2.04c0.59,0.55 0.85,1.06 1.32,1.78c0.2,0.21 0.21,0.66 0.22,0.89c-0.92,0.72 -1.85,1.22 -2.87,1.3c-0.49,-0.97 -0.9,-1.52 -1.45,-2.24c-0.34,-0.38 -0.56,-0.57 -0.77,-0.75c0.02,0 0.02,0.05 -0.12,-0.14c-0.32,-0.44 -0.54,-0.66 -0.84,-1.07c0.28,-0.75 0.63,-1.28 0.98,-1.81z" fill="#915D39" id="svg_68" opacity="1"/>
  <path d="m84.98,80.74c-0.43,0.13 -0.85,0.02 -1.27,-0.09c0.3,-0.2 0.59,-0.4 1.09,-0.61c0.21,-0.01 0.19,0.46 0.18,0.7z" fill="#814820" id="svg_69" opacity="1"/>
  <path d="m61,94.95c-0.4,0.04 -0.8,0.07 -1.81,0.09c-0.81,-0.04 -1.01,-0.06 -1.22,-0.27c0,-0.19 0.02,-0.58 0.04,-0.83c0.05,-0.42 0.07,-0.59 0.22,-1.01c-1.35,-2.11 -2.82,-3.97 -4.25,-6.19c0.36,-1.77 0.68,-3.18 1.05,-4.88c1.11,-4.62 1.46,-4.85 4,-2.88c-0.04,0.06 -0.12,0.18 -0.22,0.25c-0.18,0.17 -0.29,0.27 -0.32,0.38c-0.03,0.1 0.03,0.22 0.05,0.33c0.12,-0.02 0.23,-0.04 0.58,0.14c0.53,0.5 0.81,0.79 1.15,1.41c1.23,1.37 2.43,2.42 3.62,3.48c-0.46,1.27 -0.91,2.55 -1.88,3.9c-1.15,0.43 -1.79,0.77 -2.43,1.11c0.46,0.36 0.93,0.73 1.39,1.09c0.25,0.46 0.51,0.93 0.66,1.73c-0.37,0.54 -0.54,0.81 -0.61,1.39c-0.01,0.42 -0.01,0.59 -0.02,0.76z" fill="#9E5928" id="svg_70" opacity="1"/>
  <path d="m73,85.82c-0.35,0.69 -0.7,1.22 -1.19,2.11c-0.4,0.59 -0.62,0.83 -0.81,1.09c0.02,-0.02 0.05,0.01 0.05,0.01c-0.61,-0.47 -1.22,-0.94 -1.72,-1.8c0.29,-0.68 0.48,-0.95 0.66,-1.23c0.49,-0.28 0.98,-0.56 1.74,-0.91c0.6,0.14 0.94,0.36 1.27,0.73z" fill="#8B4C1C" id="svg_71" opacity="1"/>
  <path d="m64.94,80.13c0.02,0.7 0.03,1.41 0.05,2.46c-0.57,0.32 -1.14,0.28 -2.08,0.13c-0.58,-0.63 -0.79,-1.14 -0.81,-1.89c0.44,-0.81 0.67,-1.37 1.22,-1.9c0.71,0.07 1.12,0.11 1.54,0.41c0.04,0.44 0.06,0.61 0.08,0.79z" fill="#9E5928" id="svg_72" opacity="1"/>
  <path d="m61.91,81.07c0.21,0.51 0.42,1.02 0.81,1.75c0.42,0.7 0.68,1.18 1.05,1.91c-1.07,-0.82 -2.27,-1.87 -3.22,-3.27c0.61,-0.36 0.98,-0.38 1.36,-0.39z" fill="#874C22" id="svg_73" opacity="1"/>
  <path d="m61.18,90.98c-0.67,-0.27 -1.14,-0.64 -1.6,-1c0.64,-0.34 1.28,-0.68 2.24,-1.02c0.08,0.64 -0.17,1.29 -0.64,2.02z" fill="#B18E77" id="svg_74" opacity="1"/>
  <path d="m61.02,93.94c0.07,-0.33 0.24,-0.6 0.74,-0.9c0.22,-0.11 0.47,0.01 0.84,0.28c1.19,1.06 2.01,1.86 2.84,2.66c-0.23,0.12 -0.46,0.24 -1.08,0.43c-0.6,-0.14 -0.82,-0.34 -1.34,-0.88c-0.3,-0.34 -0.41,-0.46 -0.7,-0.67c-0.63,-0.44 -0.96,-0.68 -1.3,-0.92z" fill="#CC946C" id="svg_75" opacity="1"/>
  <path d="m65.61,95.97c-1,-0.79 -1.82,-1.59 -2.87,-2.65c0.29,-0.27 0.82,-0.28 1.88,-0.04c1.11,0.8 1.69,1.35 2.31,2.08c0.03,0.2 0.1,0.59 0.1,0.59c0,0 -0.46,0.01 -0.68,0.02c-0.23,0.01 -0.57,0 -0.74,0z" fill="#84522C" id="svg_76" opacity="1"/>
  <path d="m66.89,95.17c-0.58,-0.54 -1.16,-1.09 -1.88,-1.9c1.27,0.07 2.67,0.4 4.48,1.01c0.4,0.27 0.47,0.7 0.47,0.7c0,0 0.03,0.03 -0.35,0.02c-1.17,0.05 -1.94,0.11 -2.72,0.17z" fill="#AC9071" id="svg_77" opacity="1"/>
  <path d="m74.34,92c-1.03,-0.78 -2.07,-1.55 -3.2,-2.64c-0.09,-0.33 -0.12,-0.36 0.2,-0.34c0.76,0.03 1.21,0.03 1.66,0.03c0,0 0,-0.05 -0.02,0.21c0,0.44 0.02,0.61 0.18,1.04c0.49,0.74 0.83,1.22 1.18,1.7z" fill="#73502B" id="svg_78" opacity="1"/>
  <path d="m74.5,91.99c-0.51,-0.47 -0.85,-0.95 -1.12,-1.72c0.08,-0.3 0.51,-0.36 0.51,-0.36c0.41,0.56 0.82,1.11 1.15,1.87c-0.07,0.21 -0.38,0.2 -0.54,0.21z" fill="#966F4F" id="svg_79" opacity="1"/>
  <path d="m70.2,95.01c-0.24,-0.03 -0.31,-0.46 -0.35,-0.67c0.25,-0.07 0.52,0.12 0.92,0.55c0.16,0.19 -0.33,0.15 -0.57,0.12z" fill="#9B6E4B" id="svg_80" opacity="1"/>
  <path d="m68.86,86.13c0,0 -0.21,-0.3 -0.21,-0.3c0,0 0.31,-0.07 0.32,0.06c0.01,0.13 -0.11,0.24 -0.11,0.24z" fill="#B17D5A" id="svg_81" opacity="1"/>
  <path d="m69.77,85.98c0.04,0.3 -0.15,0.57 -0.55,0.97c-0.22,0.12 -0.3,-0.35 -0.33,-0.59c-0.03,-0.23 0.09,-0.34 0.15,-0.4c0.05,-0.06 0.5,-0.01 0.73,0.02z" fill="#B17D5A" id="svg_82" opacity="1"/>
  <path d="m8.94,27.33c1.86,0.89 3.71,2.07 5.66,3.67c-0.19,0.67 -0.49,0.91 -1.05,0.97c-1.7,-1.17 -3.12,-2.16 -4.55,-3.16c-0.02,-0.4 -0.04,-0.79 -0.06,-1.48z" fill="#5E3A1A" id="svg_83" opacity="1"/>
  <path d="m10.99,34.03c-1.15,0.59 -2.29,1.15 -3.66,1.79c0.29,-1.1 0.82,-2.26 1.83,-3.57c0.96,0.11 1.43,0.38 1.89,0.91c-0.01,0.45 -0.01,0.63 -0.02,0.81c0,0 -0.03,0.04 -0.04,0.06z" fill="#646052" id="svg_84" opacity="1"/>
  <path d="m11.06,32.89c-0.47,-0.26 -0.94,-0.53 -1.67,-0.87c-0.3,-0.86 -0.33,-1.64 -0.38,-2.82c1.42,0.61 2.84,1.6 4.38,2.98c-0.38,0.6 -0.86,0.82 -1.59,0.94c-0.41,-0.13 -0.58,-0.18 -0.74,-0.23z" fill="#916A4D" id="svg_85" opacity="1"/>
  <path d="m8.51,25.12c0.15,0.33 0.18,0.78 0.3,1.55c-0.08,-0.26 -0.25,-0.84 -0.3,-1.55z" fill="#5E3A1A" id="svg_86" opacity="1"/>
  <path d="m93.07,72.92c-0.07,0.12 -0.06,-0.37 -0.05,-0.61c0.18,-0.01 0.22,0.23 0.05,0.61z" fill="#925830" id="svg_87" opacity="1"/>
  <path d="m85.94,76.69c-0.98,0.29 -2.11,0.29 -3.58,-0.09c-0.24,-1.11 -0.11,-1.85 0.01,-2.58c0.62,0.01 1.25,0.03 2.19,0.04c0.62,0.78 0.93,1.57 1.38,2.63z" fill="#814820" id="svg_88" opacity="1"/>
  <path d="m94.94,75.52c-0.01,-0.04 0.02,0.04 0,0z" fill="#814820" id="svg_89" opacity="1"/>
  <path d="m86.24,74.01c-0.01,-0.18 0.25,-0.23 0.65,-0.07c-0.05,0.07 -0.22,0.07 -0.65,0.07z" fill="#83522E" id="svg_90" opacity="1"/>
  <path d="m57.97,94.96c0.21,0.02 0.41,0.04 0.91,0.1c-0.67,0.97 -1.65,1.9 -2.76,3.15c-0.66,-0.22 -1.19,-0.77 -2.02,-1.59c-0.3,-0.27 -0.47,-0.51 -0.64,-0.76c0.41,-0.46 0.98,-0.66 1.92,-0.88c1.11,-0.02 1.85,-0.02 2.59,-0.02z" fill="#A9612A" id="svg_91" opacity="1"/>
  <path d="m61.02,94.19c0.34,-0.01 0.67,0.23 1.26,0.64c-0.01,0.19 -0.26,0.19 -0.9,0.15c-0.37,-0.2 -0.37,-0.37 -0.36,-0.79z" fill="#9D5425" id="svg_92" opacity="1"/>
  <path d="m39.86,87.98c0,0 -0.13,-0.27 -0.04,-0.82c0.14,-0.8 0.19,-1.06 0.55,-1.3c0.73,0.08 1.15,0.12 1.65,0.38c0.69,0.31 1.32,0.4 2.18,0.67c0.76,0.48 1.28,0.78 1.89,1.29c0.08,0.21 0.27,0.61 -0.13,0.71c-0.67,0.17 -0.94,0.23 -1.43,0.37c-0.13,0.96 -0.05,1.86 -0.37,2.75c-0.67,-0.01 -0.94,-0.02 -1.21,-0.02c-0.26,-0.18 -0.49,-0.4 -0.95,-1.04c-0.48,-0.62 -0.73,-0.81 -1.01,-0.95c0,0 -0.01,-0.01 -0.06,-0.31c-0.39,-0.78 -0.73,-1.26 -1.07,-1.73z" fill="#B78B6A" id="svg_93" opacity="1"/>
  <path d="m42.97,92.27c0.25,-0.26 0.52,-0.25 1.4,-0.14c1.26,0.36 1.9,0.6 2.54,1.08c0.01,0.25 0.03,0.74 -0.43,0.87c-0.77,0.23 -1.07,0.32 -1.54,0.44c-0.37,0.04 -0.59,0.04 -1.05,-0.23c-0.42,-0.41 -0.6,-0.56 -0.78,-0.71c-0.04,-0.35 -0.08,-0.7 -0.14,-1.31z" fill="#998369" id="svg_94" opacity="1"/>
  <path d="m43.13,93.95c0.16,-0.22 0.34,-0.07 0.75,0.35c0.22,0.27 0.29,0.32 0.49,0.69c0.41,0.89 0.63,1.42 0.84,1.94c0,0 -0.09,0.09 -0.14,0.14c-0.67,-0.89 -1.3,-1.82 -1.94,-3.12z" fill="#564129" id="svg_95" opacity="1"/>
  <path d="m40.98,90.25c0.29,-0.09 0.54,0.1 0.89,0.53c0.13,0.19 -0.36,0.18 -0.6,0.16c-0.25,-0.01 -0.3,-0.46 -0.29,-0.69z" fill="#957C5E" id="svg_96" opacity="1"/>
  <path d="m46.94,93.95c0,0 -0.02,-0.49 -0.15,-1.02c-0.77,-1.59 -1.4,-2.66 -2.04,-3.72c0.27,-0.07 0.54,-0.13 1.56,-0.26c1.72,0.02 2.67,0.09 3.79,0.34c1.38,-0.61 2.61,-1.4 3.83,-2.18c1.48,1.85 2.95,3.71 4,5.78c-0.61,0.22 -0.81,0.22 -1.29,0.28c-0.73,0.65 -1.18,1.24 -1.63,1.82c-0.57,0.21 -1.14,0.41 -1.61,0.82c-0.52,-0.04 -1.15,-0.29 -2.34,-0.67c-0.74,-0.13 -0.91,-0.12 -1.41,-0.13c-0.77,-0.01 -1.21,-0.01 -1.65,-0.01c0,0 0,0 -0.14,-0.18c-0.35,-0.4 -0.57,-0.6 -0.84,-0.8c-0.02,-0.02 -0.08,-0.07 -0.08,-0.07z" fill="#BE8C65" id="svg_97" opacity="1"/>
  <path d="m48,95c0.44,0 0.88,0 1.69,0.28c0.4,0.44 0.44,0.62 0.47,0.79c-0.02,0.44 -0.03,0.87 -0.1,1.63c-0.74,0.28 -1.44,0.24 -2.48,0.16c-0.34,-0.04 -0.53,-0.43 -0.57,-0.66c-0.04,-0.23 -0.01,-0.26 0.17,-0.47c0.4,-0.71 0.61,-1.22 0.82,-1.73z" fill="#B68E78" id="svg_98" opacity="1"/>
  <path d="m50.31,95.91c-0.18,-0.01 -0.22,-0.19 -0.3,-0.62c0.14,-0.27 0.31,-0.28 0.74,-0.28c0.09,0.25 -0.09,0.49 -0.44,0.9z" fill="#B77F59" id="svg_99" opacity="1"/>
  <path d="m66.93,95.36c0.74,-0.25 1.51,-0.31 2.68,-0.38c0.13,0.52 -0.12,1.05 -0.53,1.83c-0.63,-0.02 -1.1,-0.3 -1.81,-0.72c-0.24,-0.14 -0.31,-0.53 -0.34,-0.73z" fill="#9B6E4B" id="svg_100" opacity="1"/>
  <path d="m45.5,96.95c-0.5,-0.54 -0.72,-1.07 -0.89,-2.04c0.2,-0.46 0.37,-0.46 0.79,-0.18c0.7,0.94 1.15,1.57 1.6,2.21c0,0 -0.03,0.03 -0.04,0.05c-0.39,0 -0.78,-0.01 -1.46,-0.04z" fill="#9A928A" id="svg_101" opacity="1"/>
  <path d="m30.98,33.8c-0.39,-6.82 4.83,-4.14 8.49,-4.55c0.41,0.23 0.33,0.66 0.07,0.8c-3.62,2.27 -0.62,3.62 0.38,5.38c0.01,0.16 0.03,0.46 -0.13,0.71c-0.39,0.78 -0.61,1.31 -1.09,1.86c-0.42,0.01 -0.59,0.02 -1.05,-0.13c-2.42,-1.46 -4.54,-2.76 -6.67,-4.07z" fill="#83471D" id="svg_102" opacity="1"/>
  <path d="m39.8,29.91c0,0 0.08,-0.43 0.09,-0.64c1.47,-0.87 2.92,-1.52 4.75,-1.84c0.44,0.74 0.5,1.16 0.44,1.88c0.53,2.76 1.17,5.22 1.69,7.97c-0.38,1.09 -0.63,1.89 -1.18,2.53c-1.73,-2.35 -3.15,-4.55 -4.62,-7.1c-0.41,-1.16 -0.79,-1.98 -1.17,-2.8z" fill="#B3815B" id="svg_103" opacity="1"/>
  <path d="m30.83,34.1c2.28,1.01 4.4,2.31 6.69,3.96c0.61,1.21 1.06,2.08 1.49,2.94c-0.01,0 0,-0.01 -0.28,0.15c-2.06,0.04 -3.83,-0.09 -5.75,-0.4c-0.44,-0.38 -0.72,-0.55 -1.13,-0.83c-0.14,-0.1 -0.46,-0.19 -0.74,-0.36c-1.22,-0.64 -2.17,-1.1 -3.12,-1.56c0.04,-0.26 0.14,-0.49 0.46,-0.81c0.84,-1 1.53,-1.89 2.38,-3.09z" fill="#94673E" id="svg_104" opacity="1"/>
  <path d="m50,27.13c1.12,-0.38 2.23,-0.75 3.7,-1.19c0.35,-0.06 0.29,0.05 0.18,0.49c-0.69,4.46 -1.26,8.47 -1.85,12.76c-0.03,0.45 -0.04,0.63 -0.25,0.48c-0.73,-3.79 -1.26,-7.26 -1.79,-11.03c0.01,-0.71 0.01,-1.11 0.01,-1.51z" fill="#9A5622" id="svg_105" opacity="1"/>
  <path d="m49.59,27.09c0.41,0.44 0.41,0.84 0.19,1.73c-0.73,0.75 -1.23,1.01 -1.99,1.09c-1.03,-0.43 -1.81,-0.67 -2.6,-0.91c-0.05,-0.41 -0.11,-0.83 -0.18,-1.56c1.37,-0.34 2.77,-0.37 4.58,-0.35z" fill="#965323" id="svg_106" opacity="1"/>
  <path d="m27.64,37.96c1.3,0.5 2.25,0.96 3.24,1.84c-0.26,1 -0.58,1.59 -1.24,2.18c-1.42,-0.35 -2.5,-0.7 -3.87,-1.23c-1.41,-0.42 -2.53,-0.66 -3.63,-0.87c0.02,0.02 0.01,-0.04 -0.02,-0.38c-0.09,-1.03 -0.15,-1.72 -0.19,-2.79c0.06,-0.91 0.09,-1.43 0.12,-1.95c1.75,1.05 3.5,2.1 5.59,3.2z" fill="#431D06" id="svg_107" opacity="1"/>
  <path d="m21.83,34.53c0.19,0.75 0.16,1.27 -0.25,2.12c-1.78,-0.03 -3.19,-0.38 -4.6,-0.74c-0.47,-0.2 -0.94,-0.41 -1.59,-0.77c-0.18,-0.16 -0.13,-0.24 0,-0.34c0.3,-0.27 0.45,-0.44 0.63,-0.9c0.07,-0.47 0.08,-0.66 0.4,-0.86c0.73,-0.01 1.15,-0.02 1.57,-0.03c1.21,0.42 2.41,0.85 3.84,1.52z" fill="#532F13" id="svg_108" opacity="1"/>
  <path d="m16.11,33.05c-0.01,0.19 -0.02,0.38 -0.23,0.95c-0.36,0.53 -0.51,0.7 -0.62,0.9c0,0 -0.05,0.08 -0.09,0.11c-0.85,-0.24 -1.66,-0.5 -2.78,-1.1c-0.3,-0.33 -0.34,-0.7 -0.34,-0.7c0.48,-0.21 0.96,-0.43 1.61,-0.85c0.45,-0.45 0.75,-0.69 1.2,-1.15c0.49,-0.2 0.76,-0.05 1.08,0.71c0.13,0.72 0.15,0.92 0.17,1.13z" fill="#774B2C" id="svg_109" opacity="1"/>
  <path d="m16.42,33.04c-0.33,-0.2 -0.35,-0.4 -0.37,-0.91c0.52,-0.06 1.04,0.19 1.75,0.66c-0.23,0.23 -0.65,0.24 -1.38,0.25z" fill="#5E3A1A" id="svg_110" opacity="1"/>
  <path d="m75.99,37.02c0,0 -0.08,0.42 -0.13,0.64c-3.73,0.02 -7.41,-0.16 -11.41,-0.75c-0.31,-0.4 -0.49,-0.86 -0.49,-0.86c7.43,0.82 12.15,-4.36 17.52,-8.03c1.69,-1.16 3.04,-2.81 4.55,-4.59c0.15,-0.55 0.31,-0.74 0.59,-1.05c0.37,0.6 0.62,1.34 1.15,2.37c0.28,0.3 0.43,0.46 0.43,0.46c-0.23,0.48 -0.46,0.97 -0.85,1.66c-2.92,2.18 -5.67,4.15 -9.06,6.36c-1.19,1.43 -1.74,2.61 -2.3,3.79z" fill="#562E13" id="svg_111" opacity="1"/>
  <path d="m63.86,35.97c0.1,0.08 0.28,0.54 0.35,0.77c-0.8,0.86 -1.67,1.49 -2.79,1.9c0.04,-1.01 0.33,-1.81 0.63,-2.61c0.24,-0.03 0.49,-0.05 1.1,-0.11c0.37,-0.03 0.62,-0.03 0.71,0.05z" fill="#955B24" id="svg_112" opacity="1"/>
  <path d="m87.97,24.97c0.23,-0.39 0.53,-0.7 0.83,-1.02c-0.09,0.37 -0.17,0.73 -0.43,1.18c-0.17,0.08 -0.32,-0.08 -0.4,-0.16z" fill="#562E13" id="svg_113" opacity="1"/>
  <path d="m61.74,36.03c0.01,0.8 -0.28,1.6 -0.62,2.72c-0.04,0.32 -0.06,0.29 -0.43,0.28c-2.82,0.65 -5.26,1.31 -7.89,1.81c-0.41,-0.36 -0.63,-0.59 -0.82,-0.84c0.01,-0.18 0.02,-0.36 0.27,-1.06c1.76,-2.98 3.28,-5.44 4.98,-7.61c0.39,1.42 0.6,2.55 0.82,3.68c-0.24,4.86 2.54,-0.25 3.69,1.02z" fill="#8D5D39" id="svg_114" opacity="1"/>
  <path d="m58.31,34.87c-0.48,-0.99 -0.69,-2.12 -1.27,-3.75c-0.24,-2.02 -0.11,-3.52 0.02,-5.02c0.77,-0.31 1.54,-0.61 2.62,-0.96c0.31,2.48 0.31,4.99 0.31,7.51c0.45,0.08 0.89,0.15 1.33,0.23c-0.92,0.61 -1.84,1.23 -3.01,1.99z" fill="#7C4F2B" id="svg_115" opacity="1"/>
  <path d="m56.67,26.07c0.26,1.53 0.13,3.03 0.19,4.75c-1.33,2.68 -2.85,5.14 -4.59,7.85c0.35,-3.77 0.92,-7.78 1.58,-12.18c0.87,-0.41 1.65,-0.43 2.82,-0.42z" fill="#A66638" id="svg_116" opacity="1"/>
  <path d="m33.07,68.03c-0.67,-1.47 -1.34,-2.93 -2.08,-4.75c0.73,-0.93 1.52,-1.52 2.98,-2.12c4.75,0.98 8.61,5.04 13.12,1.25c0.48,1.25 0.92,2.13 1.34,3.25c0.21,0.65 0.42,1.06 0.37,1.69c-5.59,1.93 -9.23,0.99 -11.22,-3.15c-0.95,1.44 -1.72,2.59 -2.82,3.76c-0.79,0.03 -1.24,0.05 -1.69,0.07z" fill="#7D4D27" id="svg_117" opacity="1"/>
  <path d="m47.04,62.04c-4.46,4.16 -8.32,0.1 -12.77,-0.94c-0.53,-0.34 -0.74,-0.6 -1.11,-1.27c1.22,-1.52 2.56,-2.59 4.23,-3.69c0.73,-0.05 1.15,-0.06 1.69,0.03c0.12,0.11 0.56,0.15 0.56,0.15c0,0 0.36,-0.3 0.6,-0.37c0.41,-0.13 0.57,-0.18 1.07,-0.2c0.82,0.07 1.28,0.1 1.8,0.36c0.93,0.84 1.81,1.46 2.87,2.23c0.4,0.4 0.6,0.64 0.82,1.23c0.13,0.74 0.23,1.16 0.31,1.8c-0.01,0.22 -0.07,0.67 -0.07,0.67z" fill="#A37049" id="svg_118" opacity="1"/>
  <path d="m37.07,56.17c-1.35,1.07 -2.69,2.14 -4.09,3.49c-2.13,-0.87 -4.2,-2.02 -6.46,-3.41c-0.02,-1.66 0.16,-3.09 0.64,-4.96c1.12,-0.38 1.95,-0.33 2.87,0.06c2.41,1.83 4.73,3.33 7.04,4.82z" fill="#966137" id="svg_119" opacity="1"/>
  <path d="m29.93,51.02c-0.82,-0.06 -1.65,-0.11 -2.72,-0.08c-0.67,-0.2 -1.09,-0.48 -1.81,-1.19c-0.36,-0.81 -0.43,-1.19 -0.43,-1.69c0.06,-0.11 0.2,-0.33 0.52,-0.26c2.05,0.05 3.78,0.04 5.51,0.39c0.03,0.84 0.04,1.33 -0.11,2c-0.44,0.4 -0.7,0.61 -0.96,0.83z" fill="#684732" id="svg_120" opacity="1"/>
  <path d="m24.9,48.17c0.07,0.39 0.14,0.77 0.29,1.44c-1.24,-0.18 -2.56,-0.64 -4.06,-1.35c-0.16,-0.47 -0.12,-0.68 0.29,-1.11c1.41,0.19 2.45,0.6 3.48,1.02z" fill="#7E634C" id="svg_121" opacity="1"/>
  <path d="m32.98,68.4c0.54,-0.39 0.99,-0.41 2.08,-0.31c1.4,1.41 2.17,2.71 3.04,4.29c0.37,1.72 0.63,3.17 0.63,4.48c-1.09,-0.7 -1.91,-1.28 -2.96,-2c-0.74,-0.4 -1.25,-0.64 -1.77,-1.13c-0.21,-0.47 -0.41,-0.69 -0.61,-0.92c-0.21,0.42 -0.41,0.83 -0.62,1.24c0,0 -0.34,-0.02 -0.5,-0.04c0.1,-1.76 0.36,-3.5 0.71,-5.61z" fill="#90582D" id="svg_122" opacity="1"/>
  <path d="m40.06,85.84c-0.05,0.26 -0.1,0.52 -0.25,1.17c-1.06,-1.49 -2.01,-3.38 -2.89,-5.65c0.07,-0.39 0.34,-0.41 0.57,-0.28c0.71,0.37 1.2,0.6 1.87,0.87c0.18,0.03 0.54,0.1 0.57,0.28c0.03,0.18 0.09,0.54 -0.02,0.78c-0.03,1.1 0.06,1.96 0.15,2.83z" fill="#957C5E" id="svg_123" opacity="1"/>
  <path d="m36.85,80.98c-0.53,-0.24 -0.92,-0.5 -1.56,-1.31c-0.57,-1.59 -0.91,-2.63 -1,-3.67c0.42,0 0.59,0 0.88,-0.02c0.12,-0.03 0.37,-0.06 0.52,0.29c0.63,1.79 1.1,3.23 1.57,4.68c0,0 -0.27,0.02 -0.41,0.03z" fill="#986B40" id="svg_124" opacity="1"/>
  <path d="m34.04,76.01c0.34,1.03 0.68,2.07 1.07,3.51c-0.31,-0.67 -0.68,-1.75 -1.06,-3.2c0.01,-0.37 -0.04,-0.37 -0.04,-0.35c0.01,0.02 0.03,0.04 0.03,0.04z" fill="#A99E8E" id="svg_125" opacity="1"/>
  <path d="m32.89,74.33c0.09,-0.69 0.29,-1.1 0.5,-1.52c0.2,0.23 0.4,0.45 0.59,1.25c0,1.01 0.02,1.45 0.03,1.89c0,0 0.05,0 0.07,-0.01c-0.34,-0.45 -0.71,-0.89 -1.19,-1.61z" fill="#AD9E89" id="svg_126" opacity="1"/>
  <path d="m39.92,88.27c0.28,0.18 0.62,0.66 1.01,1.43c-0.28,-0.19 -0.62,-0.66 -1.01,-1.43z" fill="#957C5E" id="svg_127" opacity="1"/>
  <path d="m26.06,40.94c1.08,0.34 2.16,0.69 3.8,1.09c0.55,0.04 0.98,0.1 1.04,0.33c0.06,0.24 0.16,0.72 -0.22,0.73c-1.37,0.12 -2.37,0.23 -3.73,0.25c-1.58,0.46 -2.8,0.99 -4.18,1.69c-0.38,0.38 -0.55,0.64 -0.94,0.92c-0.44,0.01 -0.61,0.02 -0.79,0.03c-0.59,-0.48 -1.17,-0.97 -1.82,-1.89c-0.12,-1.02 -0.18,-1.59 0.02,-2.26c0.71,-0.63 1.15,-1.17 1.93,-1.78c0.54,-0.11 0.76,-0.16 0.98,-0.21c0,0 0.01,0.06 0.08,0.3c1.32,0.42 2.57,0.61 3.83,0.8z" fill="#83532A" id="svg_128" opacity="1"/>
  <path d="m20.84,40.12c-0.45,0.54 -0.89,1.08 -1.82,1.57c-0.99,-0.21 -1.49,-0.37 -1.99,-0.52c-0.44,-0.06 -0.88,-0.11 -1.65,-0.2c-0.15,-0.72 0.03,-1.4 0.81,-2.04c1.94,0.42 3.3,0.8 4.65,1.19z" fill="#9A7A4E" id="svg_129" opacity="1"/>
  <path d="m17.08,41.46c0.45,-0.14 0.95,0.02 1.67,0.32c0.29,0.72 0.35,1.29 0.31,2.07c-0.7,-0.57 -1.31,-1.33 -1.98,-2.39z" fill="#906040" id="svg_130" opacity="1"/>
  <path d="m21.07,46.17c0.15,-0.2 0.32,-0.21 1.08,-0.2c1.39,0.6 2.2,1.18 3.02,1.76c0,0 -0.14,0.22 -0.2,0.33c-1.1,-0.31 -2.14,-0.72 -3.5,-1.23c-0.32,-0.09 -0.38,-0.47 -0.4,-0.66z" fill="#674026" id="svg_131" opacity="1"/>
  <path d="m21.17,40.05c-1.68,-0.32 -3.04,-0.7 -4.74,-1.16c-0.06,-0.83 0.22,-1.59 0.53,-2.67c1.43,0.05 2.84,0.4 4.6,0.82c0.41,0.74 0.47,1.43 0.56,2.46c-0.19,0.39 -0.41,0.44 -0.95,0.55z" fill="#764624" id="svg_132" opacity="1"/>
  <path d="m11.8,33.12c0.25,0.09 0.29,0.46 0.31,0.64c-0.16,0.19 -0.34,0.2 -0.8,0.21c-0.27,-0.18 -0.27,-0.36 -0.26,-0.81c0.17,-0.22 0.34,-0.17 0.75,-0.04z" fill="#675F56" id="svg_133" opacity="1"/>
  <path d="m52.98,41c2.45,-0.66 4.89,-1.32 7.7,-1.96c0.38,1.38 0.38,2.75 0.31,4.68c-0.06,0.55 -0.1,0.85 -0.37,0.81c-0.63,-0.06 -0.99,-0.09 -1.68,-0.17c-1.24,0.53 -2.14,1.11 -3.29,1.86c-0.74,0.74 -1.25,1.31 -1.75,1.89c-1.2,1.39 -2.39,2.79 -3.99,4.53c-0.56,0.39 -0.73,0.42 -1.13,0.27c-0.73,-0.82 -1.22,-1.45 -1.53,-2.36c0.04,-2.7 -0.1,-5.12 0.01,-7.55c0.23,0 0.7,0.01 1.06,0.01c1.8,-0.67 3.23,-1.34 4.66,-2.01z" fill="#955B24" id="svg_134" opacity="1"/>
  <path d="m72.62,47c0.37,0.69 0.39,1.41 0.15,2.67c-0.73,1.16 -1.19,1.77 -1.71,2.61c-0.05,0.23 -0.03,0.69 -0.23,0.84c-0.43,0.38 -0.63,0.64 -0.98,1.09c-0.31,0.63 -0.43,1.1 -0.59,1.91c-0.03,0.59 -0.02,0.83 -0.29,1.13c-0.46,0.1 -0.64,0.12 -1.05,0.19c-0.52,0.15 -0.74,0.35 -1.13,0.86c-1.85,1.32 -3.45,2.42 -5.23,3.35c-0.39,-0.4 -0.6,-0.64 -0.85,-1.18c-0.85,-0.61 -1.67,-0.92 -2.83,-1.32c-0.55,-0.15 -0.78,-0.21 -0.98,-0.46c0.03,-0.19 0.05,-0.58 0.27,-0.7c1.08,-0.75 1.94,-1.4 2.8,-2.04c0,0 0.02,0.04 0.41,0.04c2.79,-0.26 6.44,0.82 4.63,-3.96c2.42,-1.67 4.83,-3.33 7.61,-5.03z" fill="#A97854" id="svg_135" opacity="1"/>
  <path d="m59.71,55.76c-0.6,0.83 -1.46,1.48 -2.87,2.25c-1.3,0.76 -2.04,1.38 -3.08,1.98c-0.76,-0.35 -1.22,-0.68 -1.71,-1.4c-0.04,-0.63 -0.06,-0.89 -0.06,-1.41c0.35,-0.92 0.67,-1.57 0.99,-2.21c2.16,0.2 4.32,0.39 6.73,0.79z" fill="#A97249" id="svg_136" opacity="1"/>
  <path d="m52.82,54.83c-0.16,0.78 -0.48,1.43 -1.07,2.5c-0.49,0.71 -0.71,1.01 -1.01,1.28c-0.09,-0.04 -0.19,0.12 -0.42,0.17c-0.55,0.15 -0.86,0.25 -1.32,0.2c-0.13,-0.12 -0.4,-0.36 -0.46,-0.59c-0.78,-0.32 -1.51,-0.42 -2.36,-0.44c-0.13,0.07 -0.38,0.23 -0.38,0.23c-0.88,-0.61 -1.76,-1.23 -2.45,-2.19c1.12,-0.26 2.03,-0.17 3.27,-0.1c1.01,-0.94 1.71,-1.87 2.4,-2.79c0.16,-0.04 0.33,-0.07 0.75,-0.17c1.13,0.54 2.01,1.15 3.05,1.9z" fill="#805230" id="svg_137" opacity="1"/>
  <path d="m64.67,52.08c2.15,4.73 -1.5,3.65 -4.29,3.89c1.05,-1.29 2.5,-2.57 4.29,-3.89z" fill="#A97249" id="svg_138" opacity="1"/>
  <path d="m60.98,44.13c0.75,0.73 1.45,1.6 2.09,3.04c-0.38,0.99 -0.7,1.4 -1.26,1.89c-0.23,0.07 -0.71,0.17 -0.79,-0.15c-0.15,-0.54 -0.2,-0.76 -0.21,-1.19c0.06,-0.21 0.18,-0.63 0.17,-0.95c-0.03,-0.94 -0.06,-1.57 -0.09,-2.2c0,0 0.04,-0.3 0.09,-0.44z" fill="#5B3D17" id="svg_139" opacity="1"/>
  <path d="m62.04,48.98c0.33,-0.41 0.65,-0.82 1.11,-1.46c0.6,-0.48 1.07,-0.73 1.55,-0.98c-0.42,1.02 -0.84,2.04 -1.62,3.03c-0.55,-0.25 -0.78,-0.44 -1.04,-0.59z" fill="#A37326" id="svg_140" opacity="1"/>
  <path d="m57.11,50.76c-0.7,-0.37 -1.41,-0.73 -2.07,-1.53c0.36,-0.7 0.68,-0.95 1.21,-1.03c0.68,0.42 1.15,0.68 1.7,1.11c0.08,0.19 0.24,0.56 0.05,0.69c-0.45,0.32 -0.68,0.53 -0.89,0.76z" fill="#C98911" id="svg_141" opacity="1"/>
  <path d="m57.49,50.86c-0.17,-0.33 0.06,-0.54 0.86,-0.82c1.25,-0.05 1.96,-0.01 2.65,0.21c-0.02,0.17 -0.03,0.53 -0.03,0.53c-1.03,0.06 -2.06,0.12 -3.48,0.08z" fill="#E6A205" id="svg_142" opacity="1"/>
  <path d="m56.04,48.02c-0.32,0.26 -0.64,0.51 -1.19,0.97c-0.44,0 -0.62,-0.23 -0.85,-0.69c0.4,-0.77 0.91,-1.34 1.7,-1.76c0.3,0.61 0.32,1.04 0.34,1.48z" fill="#A76E1E" id="svg_143" opacity="1"/>
  <path d="m61.24,50.74c-0.27,0.04 -0.26,-0.32 -0.22,-0.7c0.03,-0.39 0.08,-0.81 0.08,-0.81c0,0 0.48,-0.1 0.71,-0.17c0.49,0.07 0.72,0.26 1.03,0.68c-0.37,0.45 -0.85,0.71 -1.6,1z" fill="#C6900D" id="svg_144" opacity="1"/>
  <path d="m76.3,36.99c0.25,-1.15 0.8,-2.33 1.67,-3.66c0.8,0.66 1.29,1.46 1.96,2.56c-1.25,0.41 -2.28,0.74 -3.63,1.1z" fill="#763C15" id="svg_145" opacity="1"/>
  <path d="m71.11,52.06c0.47,-0.62 0.93,-1.23 1.64,-2.03c0.52,-0.35 0.77,-0.56 1.4,-0.94c0.38,-0.14 0.81,-0.08 0.92,0.25c1.33,1.33 2.54,2.35 3.81,3.64c0.79,0.88 1.53,1.48 2.47,2.07c0.21,-0.01 0.63,-0.05 0.63,-0.05c0.96,2.56 0.2,3.82 -2.66,3.74c-0.75,-0.02 -1.52,0.5 -2.3,1.03c-0.04,0.25 -0.05,0.27 -0.31,0.37c-1.11,0 -1.96,-0.11 -2.79,-0.51c0.04,-0.66 0.06,-1.04 0.04,-1.67c-0.03,-0.24 -0.06,-0.74 0.04,-1c-0.27,-1.5 -0.63,-2.74 -1,-3.97c0,0.01 0.02,0.01 -0.17,-0.18c-0.71,-0.38 -1.21,-0.57 -1.72,-0.75z" fill="#8B4A25" id="svg_146" opacity="1"/>
  <path d="m74.96,49.01c0,0 -0.43,-0.06 -0.64,-0.1c2.48,-1.59 5.17,-3.14 8.19,-4.81c0.39,0.31 0.47,0.75 0.6,1.5c-0.11,0.55 -0.29,0.77 -0.87,1.39c-0.7,0.65 -1.01,0.9 -1.57,1.07c-1.41,0.26 -2.56,0.59 -4.04,0.93c-0.78,0.01 -1.22,0.01 -1.67,0.02z" fill="#A16238" id="svg_147" opacity="1"/>
  <path d="m82.28,74c-0.03,0.75 -0.16,1.49 -0.34,2.59c-0.79,0.39 -1.51,0.41 -2.58,0.48c-1.89,-1.47 -3.41,-2.97 -5.12,-4.75c-0.18,-0.28 -0.14,-0.28 0.17,-0.42c1.7,-1.04 3.09,-1.95 4.77,-2.89c0.46,-0.71 0.64,-1.37 0.83,-2.29c0.01,-0.24 0,-0.72 0.01,-0.97c0.02,-0.25 0.01,-0.75 0.39,-0.74c1.13,-0.01 1.89,-0.03 2.65,-0.05c0.78,-0.3 1.56,-0.61 2.59,-0.77c0.62,0.37 0.99,0.59 1.35,0.82c2.54,4.1 1.48,5.63 -4.86,6.11c-1.44,0.65 -2.21,1.18 -3.67,2.19c1.8,0.31 2.68,0.47 3.56,0.62c0,0 0.17,0.05 0.25,0.07z" fill="#A5683C" id="svg_148" opacity="1"/>
  <path d="m82.02,73.57c-0.87,0.21 -1.75,0.05 -3.55,-0.26c1.46,-1.01 2.23,-1.54 3.27,-2.19c0.27,0.62 0.27,1.35 0.28,2.45z" fill="#925830" id="svg_149" opacity="1"/>
  <path d="m87,64.74c-0.36,0.04 -0.73,-0.18 -1.03,-0.59c0.05,-0.18 0.54,-0.19 0.79,-0.2c0.24,0.17 0.24,0.35 0.24,0.79z" fill="#9D6138" id="svg_150" opacity="1"/>
  <path d="m82.98,64.69c-0.68,0.29 -1.44,0.31 -2.77,0.17c-0.81,-0.37 -1.02,-0.61 -0.91,-1c0.73,-0.99 1.17,-1.86 1.94,-2.78c0.78,-0.05 1.22,-0.07 1.67,-0.08c-0.01,1.14 -0.01,2.28 0.07,3.69z" fill="#A97251" id="svg_151" opacity="1"/>
  <path d="m82.59,60.8c-0.13,0.21 -0.57,0.23 -1.59,0.39c-1.01,0.43 -1.44,0.72 -2.24,0.96c-0.86,-0.12 -1.35,-0.17 -1.83,-0.54c0.02,-0.73 0.03,-1.15 0.04,-1.57c0,0 0.01,-0.02 0.02,-0.03c1.77,0.2 3.53,0.4 5.6,0.79z" fill="#8B4A25" id="svg_152" opacity="1"/>
  <path d="m85.97,52.98c0,0 0.02,0.46 0.03,0.69c-0.81,0.53 -1.64,0.83 -3,1.03c-1.03,-0.3 -1.53,-0.49 -2.1,-0.89c-0.07,-0.2 -0.2,-0.61 -0.1,-0.68c0.09,-0.07 0.28,-0.21 0.28,-0.21c0.43,0.02 0.85,0.03 1.98,0.06c1.43,0.01 2.17,0 2.91,0z" fill="#88512A" id="svg_153" opacity="1"/>
  <path d="m80.97,54.01c0.5,0.2 1,0.39 1.71,0.74c0.21,0.15 -0.25,0.2 -0.48,0.23c-0.22,0.02 -0.64,0.06 -0.89,-0.19c-0.28,-0.43 -0.31,-0.6 -0.34,-0.78z" fill="#86552F" id="svg_154" opacity="1"/>
  <path d="m76.96,48.99c1.15,-0.34 2.3,-0.67 3.99,-0.91c0.92,0.09 1.29,0.07 1.67,0.05c0.11,0.41 0.23,0.82 0.41,1.55c-0.71,0.32 -1.49,0.33 -2.94,0.34c-0.89,0.04 -1.09,0.07 -1.55,0.03c-0.71,-0.4 -1.14,-0.73 -1.58,-1.06z" fill="#794321" id="svg_155" opacity="1"/>
  <path d="m85.8,52.77c-0.57,0.21 -1.31,0.22 -2.42,0.22c-0.17,-0.54 0.04,-1.09 0.47,-1.82c0.74,0.33 1.26,0.86 1.95,1.6z" fill="#753B13" id="svg_156" opacity="1"/>
  <path d="m80.01,50.99c0.29,0.47 0.59,0.94 0.97,1.67c0.1,0.26 -0.09,0.4 -0.32,0.21c-0.37,-0.75 -0.51,-1.31 -0.66,-1.87c0,0 0.01,-0.01 0.01,-0.01z" fill="#88512A" id="svg_157" opacity="1"/>
  <path d="m78.81,50.12c0.19,-0.03 0.39,-0.06 0.89,-0.1c0.3,-0.02 0.3,0.48 0.3,0.72c0.01,0.25 0,0.26 -0.21,0.22c-0.21,-0.04 -0.63,-0.13 -0.71,-0.31c-0.09,-0.18 -0.27,-0.53 -0.27,-0.53z" fill="#88512A" id="svg_158" opacity="1"/>
  <path d="m82.82,47.97c-0.58,0.18 -0.95,0.2 -1.61,0.19c0.02,-0.27 0.33,-0.52 0.78,-0.84c0.42,-0.09 0.7,-0.11 1.39,-0.16c0.16,0.2 -0.1,0.43 -0.56,0.81z" fill="#95633A" id="svg_159" opacity="1"/>
  <path d="m61.73,61.82c1.61,-1.1 3.21,-2.2 5.26,-3.62c0.69,-0.45 0.93,-0.61 1.15,-0.8c0.19,-0.03 0.37,-0.05 0.94,-0.18c0.38,-0.09 0.58,-0.21 0.81,0.05c0.85,0.52 1.47,0.78 2.03,1.16c-0.16,0.29 -0.28,0.45 -0.8,0.65c-1.61,2.47 -2.85,4.88 -4.09,7.43c0.01,0.15 -0.01,0.45 -0.24,0.55c-0.6,0.53 -0.98,0.96 -1.37,1.39c0.44,0.17 0.88,0.33 1.38,0.52c0.07,0.03 0.19,0.08 -0.01,0.23c-0.68,0.36 -1.15,0.56 -1.78,0.94c0.19,0.7 0.53,1.23 0.92,2.11c0.75,2.2 1.46,4.03 2.17,5.85c-0.24,0.66 -0.48,1.32 -1.17,1.73c-0.99,-0.42 -1.54,-0.59 -2.08,-0.76c-0.41,-0.03 -0.82,-0.07 -1.54,-0.35c-0.31,-0.25 -0.35,-0.68 -0.35,-1.03c-0.06,-2.71 -0.88,-3.75 -3.43,-2.75c-2.77,1.09 -4.88,0.4 -5.42,-3.06c0.44,-0.77 0.68,-1.31 1.1,-1.7c0.4,0.37 0.61,0.6 0.87,1.04c0.4,0.41 0.72,0.63 1.04,0.84c-0.04,-0.4 -0.08,-0.79 -0.12,-1.4c0,-0.22 0,-0.65 0.28,-0.67c0.77,-0.81 1.27,-1.59 2,-2.4c0.47,-0.82 0.7,-1.6 0.98,-2.59c0.03,-0.77 -0.01,-1.34 0.22,-1.97c0.58,-0.45 0.91,-0.83 1.25,-1.21z" fill="#6E320B" id="svg_160" opacity="1"/>
  <path d="m68.42,78c-1.03,-1.72 -1.74,-3.55 -2.46,-5.97c0,-0.58 0.05,-1.03 0.38,-1.1c1.76,-0.65 3.19,-1.24 4.96,-1.84c0.77,-0.05 1.22,-0.09 1.66,0.26c0.01,1.16 0.03,1.94 0.05,2.72c-0.21,0.51 -0.42,1.02 -0.94,1.57c-0.7,-0.08 -1.09,-0.19 -1.48,-0.3c0.43,0.54 0.87,1.07 1.3,1.6c-1.05,0.99 -2.1,1.97 -3.47,3.06z" fill="#753815" id="svg_161" opacity="1"/>
  <path d="m73.27,72.07c-0.28,-0.78 -0.3,-1.56 -0.22,-2.98c0.38,-1.14 0.65,-1.63 1.17,-2.11c0.25,0.01 0.75,0.02 0.74,0.39c-0.29,1.8 -0.57,3.24 -0.86,4.67c0,0 -0.04,0 -0.05,0.02c-0.18,0.02 -0.35,0.02 -0.78,0.01z" fill="#5C270A" id="svg_162" opacity="1"/>
  <path d="m71.93,74.71c-0.47,-0.3 -0.91,-0.83 -1.34,-1.37c0.39,0.11 0.78,0.22 1.3,0.51c0.14,0.18 0.08,0.64 0.04,0.86z" fill="#6B310C" id="svg_163" opacity="1"/>
  <path d="m64.86,79.34c0.53,-0.1 1.08,0.07 1.87,0.4c-0.21,0.21 -0.66,0.26 -1.45,0.35c-0.36,-0.14 -0.38,-0.31 -0.42,-0.75z" fill="#753815" id="svg_164" opacity="1"/>
  <path d="m72.03,81.53c-0.02,0.02 0.02,-0.02 0,0z" fill="#985C32" id="svg_165" opacity="1"/>
  <path d="m72.86,88.86c-0.31,0.19 -0.76,0.19 -1.54,0.18c-0.13,-0.28 0.09,-0.52 0.55,-0.88c0.45,0.04 0.67,0.26 0.99,0.7z" fill="#A05925" id="svg_166" opacity="1"/>
  <path d="m73.75,89.75c0.14,0.16 -0.29,0.22 -0.51,0.26c-0.24,-0.14 -0.26,-0.31 -0.28,-0.75c0.23,-0.08 0.45,0.11 0.79,0.49z" fill="#A05925" id="svg_167" opacity="1"/>
  <path d="m53.93,72.12c0.72,3.22 2.83,3.91 5.6,2.82c2.55,-1 3.37,0.04 3.12,2.88c-1.4,0.69 -2.49,0.9 -3.58,1.1c-2.58,-1.91 -2.93,-1.68 -4.4,2.9c-1.13,0.27 -1.86,0.29 -2.85,0.25c-0.44,-0.08 -0.62,-0.11 -0.82,-0.1c-0.02,0.03 0.04,0.06 0.03,-0.18c-0.02,-0.24 -0.1,-0.71 -0.2,-0.92c-0.69,0.17 -1.27,0.55 -2.19,0.9c-0.58,-0.02 -0.81,0 -1.35,0.05c-0.95,0.07 -1.59,0.1 -2.23,0.14c-0.01,0.02 -0.03,-0.01 -0.1,-0.35c-1.36,-1.43 -2.65,-2.53 -4.18,-3.76c-0.76,-0.37 -1.27,-0.62 -1.78,-0.86c-0.27,-1.44 -0.53,-2.89 -0.83,-4.85c1.65,0.32 3.4,1.05 5,2.03c4.25,2.6 7.11,-1.74 10.76,-2.05z" fill="#864C20" id="svg_168" opacity="1"/>
  <path d="m52.09,82.13c0.72,-0.02 1.45,-0.04 2.53,-0.02c0.04,1.45 -0.28,2.86 -0.64,4.63c-1.27,1.15 -2.5,1.94 -3.79,2.29c-0.12,-1.33 -0.17,-2.23 0.06,-3.18c0.77,-0.31 1.26,-0.58 1.89,-1.06c0.08,-1.03 0.01,-1.84 -0.05,-2.66z" fill="#B17043" id="svg_169" opacity="1"/>
  <path d="m59.03,78.98c1.13,-0.26 2.22,-0.47 3.62,-0.81c0.31,-0.13 0.35,0.3 0.36,0.51c-0.24,0.78 -0.47,1.34 -0.91,2.15c-0.57,0.25 -0.94,0.27 -1.6,0.32c-0.57,-0.28 -0.85,-0.57 -1.37,-1.25c-0.23,-0.38 -0.22,-0.74 -0.22,-0.74c0,0 0.08,-0.12 0.12,-0.18z" fill="#8C542D" id="svg_170" opacity="1"/>
  <path d="m55.38,94.98c0.08,-0.57 0.53,-1.16 1.43,-1.62c0.7,0.35 0.94,0.59 1.18,0.83c0,0 -0.02,0.39 -0.02,0.58c-0.74,0.19 -1.48,0.19 -2.59,0.21z" fill="#A64B0E" id="svg_171" opacity="1"/>
  <path d="m58.81,79.23c0.1,-0.07 0.09,0.29 0.09,0.47c-0.13,0.2 -0.24,0.22 -0.36,0.24c-0.02,-0.11 -0.08,-0.23 -0.05,-0.33c0.03,-0.11 0.14,-0.21 0.32,-0.38z" fill="#864C20" id="svg_172" opacity="1"/>
  <path d="m58.01,93.94c-0.26,0.01 -0.5,-0.23 -0.91,-0.65c0.02,-0.18 0.22,-0.18 0.71,-0.14c0.27,0.2 0.25,0.37 0.2,0.79z" fill="#A96B44" id="svg_173" opacity="1"/>
  <path d="m49.97,85.9c0.05,0.9 0.1,1.8 0.06,2.96c-1.05,0.18 -2,0.11 -3.31,-0.01c-0.36,-0.04 -0.55,-0.44 -0.63,-0.99c-0.09,-1.01 -0.09,-1.47 -0.08,-2.29c0.06,-1.1 0.1,-1.84 0.32,-2.45c0.58,0.35 0.96,0.59 1.52,1.06c0.8,0.67 1.43,1.1 2.07,1.58c0.01,0.05 0.05,0.14 0.05,0.14z" fill="#A86130" id="svg_174" opacity="1"/>
  <path d="m40.37,85.86c-0.4,-0.89 -0.49,-1.75 -0.17,-2.72c1.13,0.31 1.86,0.73 2.64,1.31c0.05,0.16 0.16,0.47 0.14,0.74c-0.02,0.46 -0.03,0.64 -0.29,0.82c-0.42,0.01 -0.59,0.01 -0.75,0.01c-0.42,-0.04 -0.84,-0.08 -1.57,-0.16z" fill="#A06022" id="svg_175" opacity="1"/>
  <path d="m44.53,89.28c0.86,0.99 1.49,2.06 2.25,3.4c-0.51,0.05 -1.15,-0.19 -2.01,-0.54c-0.29,-1 -0.37,-1.9 -0.24,-2.86z" fill="#946332" id="svg_176" opacity="1"/>
  <path d="m42.94,86.01c0.01,-0.18 0.02,-0.36 0.36,-0.77c1.12,0.08 1.9,0.39 2.69,0.7c0.01,0.45 0.01,0.91 0.01,1.71c-0.52,0.04 -1.04,-0.26 -1.95,-0.88c-0.62,-0.49 -0.86,-0.64 -1.11,-0.76z" fill="#A34A13" id="svg_177" opacity="1"/>
  <path d="m42.69,86.01c0.5,0.12 0.74,0.27 1.11,0.58c-0.46,0.05 -1.09,-0.04 -1.78,-0.35c0.08,-0.22 0.25,-0.22 0.67,-0.23z" fill="#9B6131" id="svg_178" opacity="1"/>
  <path d="m47.18,96.73c-0.63,-0.43 -1.08,-1.06 -1.76,-1.96c-0.23,-0.26 -0.32,-0.27 -0.32,-0.27c0.31,-0.1 0.61,-0.19 1.38,-0.42c0.46,-0.13 0.52,-0.08 0.69,0.11c0.37,0.42 0.59,0.62 0.83,0.81c0,0 0,0 0,0c-0.21,0.51 -0.42,1.02 -0.82,1.73z" fill="#BA8965" id="svg_179" opacity="1"/>
  <path d="m44.94,94.52c0.16,-0.02 0.25,-0.01 0.23,-0.05c-0.19,-0.02 -0.36,-0.02 -0.76,0.07c-0.24,0.08 -0.31,0.03 -0.3,0.02c0.24,0 0.46,0 0.83,-0.04z" fill="#946332" id="svg_180" opacity="1"/>
  <path d="m47.86,94.82c-0.1,-0.01 -0.32,-0.21 -0.67,-0.61c0.1,0.01 0.32,0.21 0.67,0.61z" fill="#B68E78" id="svg_181" opacity="1"/>
  <path d="m47.02,43c0.13,2.43 0.27,4.85 -0.02,7.61c-0.6,0.37 -0.77,0.4 -1.04,0.12c-0.8,-1.11 -1.51,-1.91 -2.36,-2.85c-0.31,-0.37 -0.42,-0.61 -0.27,-1.13c2.6,-5.28 -0.85,-5.53 -4.32,-5.76c0,0 -0.01,0.01 -0.01,-0.36c-0.02,-1.13 -0.03,-1.89 -0.05,-2.64c0.23,-0.54 0.45,-1.07 1.02,-1.97c0.59,-0.53 0.8,-0.72 1.01,-1.27c0.02,-0.8 0.02,-1.25 0.03,-1.7c1.43,2.21 2.85,4.41 4.78,7.03c0.75,1.25 0.99,2.08 1.23,2.92z" fill="#9D673D" id="svg_182" opacity="1"/>
  <path d="m40.97,32.71c0.03,0.79 0.03,1.24 -0.26,2.07c-0.45,0.42 -0.63,0.46 -0.8,0.5c-0.99,-1.61 -3.99,-2.96 -0.37,-5.23c0.64,0.68 1.02,1.5 1.43,2.66z" fill="#A97655" id="svg_183" opacity="1"/>
  <path d="m38.7,38c0.27,0.74 0.28,1.5 0.31,2.63c-0.43,-0.49 -0.88,-1.36 -1.19,-2.42c0.29,-0.19 0.46,-0.2 0.88,-0.21z" fill="#8A5624" id="svg_184" opacity="1"/>
  <path d="m39.92,35.43c0.16,-0.19 0.34,-0.23 0.78,-0.31c0.07,0.18 -0.14,0.37 -0.57,0.66c-0.18,0.11 -0.2,-0.19 -0.21,-0.35z" fill="#8A5624" id="svg_185" opacity="1"/>
  <path d="m45.08,29.31c0.9,-0.07 1.68,0.17 2.73,0.91c0.26,2.6 0.23,4.69 -0.07,6.78c-0.46,0 -0.65,0 -0.84,-0.01c-0.65,-2.46 -1.29,-4.92 -1.82,-7.68z" fill="#9A5622" id="svg_186" opacity="1"/>
  <path d="m46.77,37.28c0.32,-0.28 0.51,-0.28 0.98,0.15c0.26,2.15 0.23,3.86 0.21,5.58c0,0 -0.47,-0.01 -0.7,-0.01c-0.48,-0.84 -0.72,-1.67 -1.17,-2.77c0.05,-1.06 0.3,-1.86 0.68,-2.95z" fill="#965323" id="svg_187" opacity="1"/>
  <path d="m38.73,41.15c3.75,0.07 7.2,0.32 4.52,5.6c-0.28,0.25 -0.43,0.25 -0.48,-0.09c-1.3,-1.09 -2.57,-1.83 -4.18,-2.63c-1.03,-0.06 -1.72,-0.08 -2.66,-0.3c-1.1,-1.07 -1.95,-1.93 -2.8,-2.79c1.77,0.12 3.54,0.25 5.6,0.21z" fill="#8A5624" id="svg_188" opacity="1"/>
  <path d="m32.98,40.75c1,1.05 1.85,1.91 2.56,2.99c-1.58,-0.08 -3.03,-0.37 -4.48,-0.66c0,0 -0.1,-0.48 0.04,-0.95c0.38,-1.02 0.63,-1.56 0.88,-2.11c0.28,0.18 0.56,0.35 1,0.73z" fill="#431D06" id="svg_189" opacity="1"/>
  <path d="m31.85,39.92c-0.12,0.65 -0.37,1.19 -0.81,1.97c-0.2,0.24 -0.63,0.18 -0.84,0.13c0.1,-0.63 0.42,-1.22 0.96,-2.05c0.23,-0.24 0.55,-0.15 0.69,-0.05z" fill="#401E0E" id="svg_190" opacity="1"/>
  <path d="m48.32,43.01c-0.34,-1.72 -0.31,-3.43 -0.29,-5.58c0.01,-2.52 0.04,-4.61 0.04,-7.02c0.48,-0.58 0.98,-0.84 1.7,-1.28c0.75,3.28 1.28,6.75 2.01,10.54c0.39,0.58 0.61,0.81 1.02,1.17c-1.25,0.83 -2.68,1.5 -4.48,2.17z" fill="#A5683A" id="svg_191" opacity="1"/>
  <path d="m25.77,40.75c-0.97,0 -2.22,-0.19 -3.56,-0.64c1.03,-0.02 2.15,0.22 3.56,0.64z" fill="#764624" id="svg_192" opacity="1"/>
  <path d="m15.39,34.8c-0.02,-0.1 0.13,-0.27 0.44,-0.52c0.01,0.08 -0.14,0.25 -0.44,0.52z" fill="#5E3A1A" id="svg_193" opacity="1"/>
  <path d="m54.11,71.88c-3.83,0.55 -6.69,4.89 -10.94,2.29c-1.6,-0.98 -3.35,-1.71 -5.1,-2.31c-0.84,-1.06 -1.61,-2.36 -2.67,-3.78c0.46,-1.29 1.23,-2.44 2.18,-3.88c1.99,4.14 5.63,5.08 11.53,3.12c1.34,0.02 2.11,0.28 3.13,0.5c1.06,-0.03 1.87,0 2.7,0.34c0.04,0.51 0.06,0.71 0.08,1.15c0,0.24 0.02,0.72 0.02,0.72c-0.25,0.54 -0.49,1.08 -0.93,1.85z" fill="#592507" id="svg_194" opacity="1"/>
  <path d="m47.09,62.41c-0.05,-0.37 0.01,-0.82 0.25,-0.94c0.7,0.1 1.15,0.32 1.82,0.79c2.1,0.42 3.97,0.6 6.18,0.74c0.64,-0.36 0.93,-0.67 1.31,-0.85c0.08,0.15 0.36,0.32 0.34,0.33c-0.02,0.01 -0.01,-0.03 -0.09,0.37c-0.07,0.67 -0.05,0.94 -0.28,1.43c-1.71,0.73 -3.18,1.25 -4.94,1.68c-1.28,-0.23 -2.26,-0.38 -3.24,-0.53c-0.43,-0.89 -0.87,-1.77 -1.35,-3.02z" fill="#60381F" id="svg_195" opacity="1"/>
  <path d="m48.43,65.66c0.99,-0.08 1.97,0.07 3.25,0.61c0.31,0.79 0.31,1.19 0.31,1.6c-0.77,-0.27 -1.54,-0.53 -2.62,-0.77c-0.52,-0.38 -0.73,-0.79 -0.94,-1.44z" fill="#B2764A" id="svg_196" opacity="1"/>
  <path d="m30.03,51.35c0.16,-0.55 0.42,-0.76 1.14,-1.06c3.57,0.85 6.68,1.76 9.8,3.02c0,1.03 0,1.72 0,2.41c-0.16,0.05 -0.32,0.1 -0.99,0.24c-0.67,0.09 -0.84,0.1 -1.02,0.1c-0.42,0.02 -0.84,0.03 -1.57,0.08c-2.63,-1.46 -4.95,-2.96 -7.36,-4.79z" fill="#6D3B19" id="svg_197" opacity="1"/>
  <path d="m41.31,55.75c-0.34,-0.72 -0.34,-1.41 -0.33,-2.43c0,-0.33 0,-0.34 0.18,-0.6c0.37,-1.07 0.57,-1.88 0.74,-2.95c0.29,-1.1 0.6,-1.93 0.92,-2.77c0,0 0.15,0 0.23,0c0.13,0.27 0.24,0.51 0.69,1.19c0.91,1.61 1.55,2.77 2.25,4.3c0.14,1.39 0.22,2.4 0.3,3.41c-0.91,-0.08 -1.82,-0.17 -2.98,-0.14c-0.72,0.09 -1.18,0.06 -2,-0.01z" fill="#6F4321" id="svg_198" opacity="1"/>
  <path d="m48.93,62.02c-0.44,-0.23 -0.89,-0.45 -1.57,-0.78c-0.33,-0.51 -0.43,-0.93 -0.49,-1.74c0.04,-0.39 0.18,-0.53 0.45,-0.53c0.6,-0.11 0.94,-0.23 1.28,-0.35c0,0 0.27,0.24 0.35,0.73c0.05,1.21 0.02,1.94 -0.02,2.67z" fill="#82552B" id="svg_199" opacity="1"/>
  <path d="m39.08,56.17c0.06,-0.11 0.23,-0.12 0.66,-0.14c0.26,-0.01 -0.1,0.29 -0.1,0.29c0,0 -0.44,-0.04 -0.56,-0.15z" fill="#6F4321" id="svg_200" opacity="1"/>
  <path d="m46.84,59.18c-0.26,-0.2 -0.46,-0.44 -0.86,-0.84c-0.18,-0.16 0.07,-0.32 0.37,-0.25c0.49,0.31 0.62,0.58 0.7,0.88c0,0 -0.14,0.14 -0.21,0.21z" fill="#805230" id="svg_201" opacity="1"/>
  <path d="m42.77,46.66c-0.27,1.18 -0.58,2.01 -1.04,3.37c-0.34,1.33 -0.55,2.14 -0.75,2.95c0,0 0,0.01 -0.01,0c-3.12,-0.93 -6.23,-1.84 -9.62,-2.87c-0.31,-0.59 -0.32,-1.08 -0.18,-2.22c2.7,-1.71 5.23,-2.76 7.77,-3.81c1.26,0.75 2.53,1.49 3.83,2.58z" fill="#584020" id="svg_202" opacity="1"/>
  <path d="m38.59,44.03c-2.19,1.1 -4.72,2.15 -7.43,3.49c-1.89,0.32 -3.62,0.33 -5.67,0.28c-1.14,-0.65 -1.95,-1.23 -3.08,-1.83c-0.19,-0.3 -0.02,-0.56 0.72,-0.9c1.74,-0.63 2.96,-1.14 4.19,-1.64c0.99,-0.11 1.99,-0.22 3.36,-0.34c1.83,0.28 3.28,0.57 5.12,0.86c1.07,0 1.76,0.02 2.79,0.08z" fill="#401E0E" id="svg_203" opacity="1"/>
  <path d="m38.73,76.86c0.78,0.37 1.29,0.62 1.95,1.26c-0.14,0.9 -0.42,1.41 -0.91,2.09c-0.33,0.69 -0.46,1.19 -0.59,1.7c-0.49,-0.23 -0.98,-0.46 -1.69,-0.83c-0.7,-1.58 -1.17,-3.02 -1.68,-5.06c0.04,-0.75 0.13,-0.9 0.21,-1.05c-0.01,0.01 -0.01,0.04 -0.01,0.04c0.81,0.57 1.63,1.15 2.72,1.85z" fill="#B18A71" id="svg_204" opacity="1"/>
  <path d="m34.01,75.97c-0.01,-0.46 -0.03,-0.9 -0.01,-1.67c0.52,-0.08 1.03,0.16 1.77,0.56c0.24,0.15 0.24,0.12 0.08,0.28c-0.4,0.37 -0.61,0.61 -0.8,0.87c-0.17,-0.01 -0.34,-0.01 -0.76,-0.01c-0.25,0.01 -0.27,-0.01 -0.28,-0.03z" fill="#B18A71" id="svg_205" opacity="1"/>
  <path d="m42.8,84.29c-0.74,-0.42 -1.47,-0.84 -2.49,-1.39c-0.29,-0.13 -0.35,-0.49 -0.1,-0.69c0.43,-0.2 0.61,-0.21 1.2,-0.23c1.47,-0.02 2.55,-0.03 3.62,-0.03c0,0 0.02,0.03 0.05,0.26c0.04,0.23 0.14,0.72 -0.12,0.95c-0.9,0.52 -1.53,0.83 -2.16,1.13z" fill="#C09A84" id="svg_206" opacity="1"/>
  <path d="m41.01,82c-0.19,0 -0.37,0.01 -0.84,0.03c-0.27,0.02 -0.63,-0.05 -0.81,-0.08c-0.05,-0.55 0.08,-1.05 0.54,-1.49c0.58,0.56 0.85,1.05 1.11,1.54z" fill="#C7B5AB" id="svg_207" opacity="1"/>
  <path d="m35.17,75.98c0.07,-0.23 0.28,-0.47 0.69,-0.85c0.08,-0.01 -0.01,0.14 -0.21,0.54c-0.11,0.25 -0.36,0.28 -0.48,0.31z" fill="#8E6532" id="svg_208" opacity="1"/>
  <path d="m26.95,43.34c-0.86,0.59 -2.08,1.1 -3.65,1.57c0.85,-0.58 2.07,-1.11 3.65,-1.57z" fill="#674026" id="svg_209" opacity="1"/>
  <path d="m46.62,55.89c-0.41,-1 -0.49,-2.01 -0.59,-3.66c0,-0.83 0.02,-1 0.03,-1.18c0.17,-0.04 0.34,-0.07 0.76,-0.17c0.74,0.58 1.23,1.21 1.96,2.03c-0.45,1.11 -1.15,2.04 -2.16,2.98z" fill="#A98662" id="svg_210" opacity="1"/>
  <path d="m56.25,48.2c-0.23,-0.62 -0.25,-1.05 -0.32,-1.82c0.87,-0.91 1.77,-1.49 2.95,-1.71c0.16,0.75 0.05,1.14 -0.21,1.74c0,0.99 0.15,1.79 0.03,2.61c-0.46,0.05 -0.64,0.08 -0.82,0.11c-0.48,-0.25 -0.95,-0.51 -1.63,-0.93z" fill="#5B3D17" id="svg_211" opacity="1"/>
  <path d="m58.82,46.21c0.11,-0.4 0.22,-0.79 0.39,-1.49c0.42,-0.28 0.78,-0.25 1.41,-0.19c0.3,0.67 0.33,1.3 0.06,2.21c-0.82,0.01 -1.34,-0.26 -1.86,-0.53z" fill="#1F140B" id="svg_212" opacity="1"/>
  <path d="m73,52.99c0.37,1.23 0.73,2.47 0.7,3.91c-0.8,0.13 -1.2,0.04 -1.86,-0.21c-1.01,-0.42 -1.78,-0.67 -2.54,-0.92c0.12,-0.46 0.24,-0.93 0.81,-1.47c1.26,-0.48 2.08,-0.9 2.89,-1.31z" fill="#68280E" id="svg_213" opacity="1"/>
  <path d="m56.98,62.45c0,0 -0.01,0.04 0.11,-0.3c0.46,-1.2 0.79,-2.06 1.13,-2.91c0.82,0.31 1.64,0.62 2.25,1.39c-0.68,1.07 -1.16,1.68 -1.96,2.26c-0.72,-0.16 -1.12,-0.3 -1.53,-0.44z" fill="#662F15" id="svg_214" opacity="1"/>
  <path d="m57.88,59.15c0,0.94 -0.33,1.8 -0.77,2.99c-0.1,0.33 -0.38,0.16 -0.83,-0.06c-0.69,-0.29 -0.93,-0.36 -1.17,-0.69c0.02,-0.6 0.03,-0.94 0.26,-1.43c0.65,-0.46 1.08,-0.77 1.51,-1.08c0.22,0.06 0.45,0.12 1,0.27z" fill="#9A5731" id="svg_215" opacity="1"/>
  <path d="m73,52.99c-0.81,0.41 -1.63,0.83 -2.71,1.15c-0.09,-0.38 0.11,-0.64 0.88,-1.01c0.96,-0.14 1.41,-0.14 1.85,-0.13c0,0 -0.02,0 -0.02,-0.01z" fill="#89432A" id="svg_216" opacity="1"/>
  <path d="m56.9,58.69c-0.45,0.5 -0.88,0.81 -1.8,1.24c-0.68,0.11 -0.86,0.08 -1.06,0.06c-0.01,0 0.01,0.02 0.01,0.02c0.75,-0.62 1.49,-1.24 2.57,-1.88c0.33,-0.02 0.31,0.37 0.28,0.56z" fill="#C69E80" id="svg_217" opacity="1"/>
  <path d="m58.83,62.92c0.48,-0.61 0.96,-1.22 1.68,-1.99c0.45,0.08 0.66,0.32 1.05,0.72c-0.17,0.55 -0.5,0.93 -1.43,1.34c-0.84,0 -1.07,-0.04 -1.3,-0.07z" fill="#A77340" id="svg_218" opacity="1"/>
  <path d="m69.26,56.12c0.8,-0.1 1.57,0.15 2.18,0.61c-0.69,0.22 -1.24,0.25 -1.78,0.28c0,0 -0.2,0.12 -0.31,0.14c-0.11,-0.2 -0.12,-0.44 -0.09,-1.03z" fill="#814F34" id="svg_219" opacity="1"/>
  <path d="m72.83,52.81c-0.25,0.18 -0.7,0.18 -1.47,0.16c-0.33,0 -0.35,-0.46 -0.3,-0.69c0.56,-0.04 1.06,0.15 1.77,0.53z" fill="#68280E" id="svg_220" opacity="1"/>
  <path d="m67.92,57.44c0,0.15 -0.24,0.31 -0.69,0.53c-0.05,-0.18 0.17,-0.38 0.69,-0.53z" fill="#814F34" id="svg_221" opacity="1"/>
  <path d="m52.07,58.97c0.47,0.34 0.93,0.67 1.69,1.02c0.29,0.02 0.27,0 0.01,0.14c-1.24,-0.37 -2.23,-0.89 -3.22,-1.4c0,0 0.1,-0.16 0.5,-0.03c0.6,0.18 0.81,0.23 1.02,0.27z" fill="#C6966C" id="svg_222" opacity="1"/>
  <path d="m52.05,58.59c-0.19,0.34 -0.4,0.29 -0.92,0.15c-0.09,-0.4 0.13,-0.7 0.6,-1.14c0.26,0.1 0.28,0.36 0.32,0.99z" fill="#B88F67" id="svg_223" opacity="1"/>
  <path d="m50.32,58.78c1.22,0.46 2.21,0.98 3.47,1.35c0.45,-0.12 0.63,-0.09 1.09,-0.05c0.26,0.37 0.25,0.71 0.2,1.66c-0.06,0.84 -0.07,1.07 -0.08,1.3c-1.87,-0.18 -3.74,-0.36 -5.84,-0.78c-0.19,-0.97 -0.16,-1.7 -0.08,-2.79c0.38,-0.44 0.69,-0.54 1.24,-0.69z" fill="#B88F67" id="svg_224" opacity="1"/>
  <path d="m47.32,58.97c-0.35,-0.3 -0.48,-0.57 -0.85,-0.95c0.56,-0.05 1.29,0.05 2.07,0.37c-0.28,0.35 -0.62,0.47 -1.22,0.58z" fill="#4F1504" id="svg_225" opacity="1"/>
  <path d="m58.67,46.41c0.67,0.07 1.19,0.34 2.01,0.64c0.31,0.04 0.19,0.46 -0.08,0.82c-0.71,0.62 -1.17,0.87 -1.63,1.12c-0.15,-0.79 -0.3,-1.59 -0.3,-2.58z" fill="#926D09" id="svg_226" opacity="1"/>
  <path d="m58.7,49.02c0.73,-0.28 1.19,-0.53 1.85,-0.93c0.27,0.06 0.32,0.28 0.47,0.82c0.08,0.32 0.03,0.74 0.01,0.95c-0.72,0.17 -1.43,0.13 -2.49,0.04c-0.35,-0.03 -0.51,-0.4 -0.59,-0.59c0.11,-0.21 0.29,-0.24 0.75,-0.29z" fill="#81500B" id="svg_227" opacity="1"/>
  <path d="m74.97,67c0,0 -0.5,-0.01 -0.73,-0.34c-0.48,-1.73 -0.72,-3.14 -1.2,-4.74c-0.83,-0.42 -1.41,-0.64 -1.91,-1.17c0.15,-0.51 0.21,-0.71 0.59,-0.86c0.94,0.04 1.56,0.03 2.18,0.03c0.85,0.11 1.7,0.22 2.81,0.22c0.25,0.32 0.24,0.74 0.1,1.7c-0.24,1.04 -0.36,1.53 -0.56,2.36c-0.49,1.16 -0.89,1.98 -1.28,2.8z" fill="#703414" id="svg_228" opacity="1"/>
  <path d="m78.54,50.05c0.27,0.07 0.45,0.42 0.45,1.07c-0.05,0.96 -0.11,1.27 -0.17,1.58c-1.21,-1.01 -2.42,-2.03 -3.75,-3.36c0.34,-0.34 0.78,-0.34 1.56,-0.35c0.77,0.33 1.2,0.66 1.91,1.06z" fill="#B37F62" id="svg_229" opacity="1"/>
  <path d="m78.88,52.98c0,-0.59 0.06,-0.9 0.2,-1.68c0.08,-0.47 0.5,-0.38 0.72,-0.34c0.35,0.6 0.49,1.16 0.77,1.98c0.13,0.26 0.26,0.67 0.33,0.87c0.1,0.38 0.13,0.55 0.2,0.99c-0.69,-0.34 -1.43,-0.94 -2.22,-1.82z" fill="#A36E51" id="svg_230" opacity="1"/>
  <path d="m73.92,59.63c-0.64,0.29 -1.26,0.3 -2.18,0.05c-0.29,-0.25 -0.24,-0.67 -0.24,-0.67c0.14,-0.13 0.26,-0.29 0.76,-0.64c0.85,-0.18 1.3,-0.17 1.74,-0.16c-0.02,0.38 -0.04,0.76 -0.08,1.42z" fill="#521D09" id="svg_231" opacity="1"/>
  <path d="m73.96,57.96c-0.4,0.24 -0.85,0.23 -1.64,0.28c-0.96,-0.19 -1.58,-0.45 -2.43,-0.97c0.31,-0.29 0.86,-0.32 1.8,-0.37c0.81,0.04 1.21,0.13 1.91,0.26c0.3,0.06 0.33,0.56 0.36,0.8z" fill="#9C7862" id="svg_232" opacity="1"/>
  <path d="m74.96,67.37c0.4,-1.19 0.8,-2.01 1.48,-3.02c0.67,0.1 1.06,0.4 1.67,0.89c0.78,0.39 1.34,0.57 1.9,0.76c0,0 0.01,0.48 -0.23,0.79c-0.46,0.96 -0.67,1.61 -0.88,2.25c-1.4,0.91 -2.79,1.82 -4.49,2.86c-0.02,-1.29 0.26,-2.73 0.55,-4.53z" fill="#8E502B" id="svg_233" opacity="1"/>
  <path d="m79.18,69.01c-0.07,-0.61 0.14,-1.26 0.59,-1.98c0.05,0.61 -0.13,1.27 -0.59,1.98z" fill="#A97251" id="svg_234" opacity="1"/>
  <path d="m80.02,65.75c-0.57,0.06 -1.13,-0.12 -1.74,-0.71c0.21,-0.61 0.48,-0.83 0.73,-1.04c-0.01,0 -0.01,-0.01 -0.01,-0.01c0.19,0.26 0.4,0.5 0.83,0.87c0.2,0.14 0.21,0.64 0.19,0.89z" fill="#BD886C" id="svg_235" opacity="1"/>
  <path d="m79.12,62.2c0.44,-0.29 0.87,-0.58 1.55,-0.97c-0.2,0.77 -0.64,1.64 -1.37,2.63c-0.3,0.13 -0.3,0.14 -0.25,-0.16c0.05,-0.7 0.06,-1.1 0.07,-1.5z" fill="#B58D76" id="svg_236" opacity="1"/>
  <path d="m78.76,62.15c0.35,0.45 0.34,0.85 0.29,1.54c-0.29,0.52 -0.56,0.74 -0.99,1.15c-0.56,-0.09 -0.95,-0.39 -1.53,-0.82c-0.08,-0.65 0.04,-1.14 0.28,-1.86c0.6,-0.18 1.09,-0.13 1.95,-0.01z" fill="#A16F54" id="svg_237" opacity="1"/>
  <path d="m71.12,59.08c0.38,-0.07 0.33,0.35 0.31,0.55c-0.09,0.41 -0.15,0.61 -0.46,1.42c-0.82,2.05 -1.4,3.49 -2.31,4.98c-0.76,0.14 -1.2,0.23 -1.63,0.33c1.24,-2.4 2.48,-4.81 4.09,-7.28z" fill="#834923" id="svg_238" opacity="1"/>
  <path d="m55.01,69.08c-0.01,-0.21 -0.03,-0.41 0.16,-1.12c1.11,-1.26 2.03,-2.01 3.17,-2.79c0.24,-0.02 0.71,0.04 0.71,0.34c-0.01,0.9 -0.01,1.51 -0.01,2.11c-0.49,0.78 -0.99,1.56 -1.98,2.19c-1.01,-0.35 -1.53,-0.54 -2.05,-0.73z" fill="#4D1C04" id="svg_239" opacity="1"/>
  <path d="m70.97,69.1c-1.44,0.59 -2.87,1.18 -4.8,1.68c-0.71,-0.29 -0.88,-0.54 -1,-0.82c0.47,-0.2 0.94,-0.4 1.92,-0.9c1.37,-0.55 2.23,-0.8 3.25,-0.9c0.34,0.41 0.5,0.67 0.63,0.94z" fill="#6B310C" id="svg_240" opacity="1"/>
  <path d="m70.18,68.01c-0.86,0.25 -1.72,0.5 -2.88,0.89c-0.31,0.15 -0.43,0.1 -0.42,-0.25c0.05,-0.8 0.1,-1.24 0.14,-1.69c0,0 0.02,-0.3 0.01,-0.45c0.43,-0.25 0.87,-0.34 1.93,-0.46c0.85,-0.01 1.05,0.01 1.24,0.35c-0.02,0.75 -0.02,1.18 -0.02,1.61z" fill="#571F0A" id="svg_241" opacity="1"/>
  <path d="m59.05,65.21c0,0 -0.47,-0.06 -0.9,-0.25c-0.71,-0.42 -1,-0.66 -1.29,-0.9c-0.01,-0.27 -0.03,-0.54 0.04,-1.21c0.49,-0.26 0.89,-0.12 1.61,0.04c0.55,0.06 0.78,0.1 1.36,0.17c0.38,0.6 0.42,1.17 0.1,1.88c-0.53,0.19 -0.72,0.23 -0.92,0.27z" fill="#A78363" id="svg_242" opacity="1"/>
  <path d="m59.05,65.51c0.2,-0.34 0.39,-0.38 0.87,-0.36c0.06,0.84 -0.17,1.62 -0.64,2.44c-0.24,-0.57 -0.24,-1.18 -0.23,-2.08z" fill="#2E0505" id="svg_243" opacity="1"/>
  <path d="m66.79,67.06c0.19,0.35 0.14,0.79 0.02,1.56c-0.51,0.16 -0.95,0 -1.39,-0.17c0.39,-0.43 0.77,-0.86 1.37,-1.39z" fill="#7B4317" id="svg_244" opacity="1"/>
  <path d="m57,70.87c0.04,0.4 0.08,0.79 0.12,1.19c-0.32,-0.21 -0.64,-0.43 -0.79,-0.87c0.18,-0.23 0.67,-0.32 0.67,-0.32z" fill="#4D1C04" id="svg_245" opacity="1"/>
  <path d="m57,70.66c0,0.21 -0.49,0.3 -0.74,0.33c-0.44,-0.21 -0.65,-0.44 -1.05,-0.81c-0.17,-0.15 -0.19,-0.63 -0.19,-0.87c0.51,-0.04 1.03,0.15 1.76,0.52c0.22,0.18 0.22,0.61 0.22,0.83z" fill="#6D300F" id="svg_246" opacity="1"/>
  <path d="m65.01,70.14c0.28,0.1 0.45,0.35 0.83,0.71c0.17,0.15 0.12,0.6 0.08,0.82c-0.38,-0.3 -0.72,-0.83 -0.91,-1.53z" fill="#551603" id="svg_247" opacity="1"/>
  <path d="m70.34,68.16c-0.16,-0.58 -0.16,-1.01 0.1,-1.95c1.12,-1.7 1.98,-2.9 2.84,-4.09c0.24,1.4 0.48,2.81 0.71,4.53c-0.29,0.81 -0.56,1.3 -0.93,2.05c-0.54,0.3 -0.99,0.34 -1.76,0.39c-0.46,-0.26 -0.62,-0.52 -0.96,-0.93z" fill="#8F5022" id="svg_248" opacity="1"/>
  <path d="m41.41,81.98c-0.66,-0.47 -0.93,-0.96 -1.32,-1.7c0.17,-0.75 0.45,-1.26 0.84,-2.03c1.38,0.83 2.67,1.93 4.03,3.36c-1,0.34 -2.08,0.35 -3.55,0.37z" fill="#A36E4B" id="svg_249" opacity="1"/>
  <path d="m52,85c-0.49,0.27 -0.98,0.54 -1.75,0.85c-0.28,0.05 -0.32,-0.04 -0.33,-0.42c-0.32,-1.46 -0.63,-2.55 -0.94,-3.63c0.58,-0.38 1.16,-0.76 1.8,-0.81c0,0.59 0.07,0.83 0.26,1.04c0,0 -0.06,-0.03 -0.03,0.27c0.35,1.1 0.67,1.9 0.99,2.7z" fill="#A26941" id="svg_250" opacity="1"/>
  <path d="m48.64,81.77c0.65,1.11 0.96,2.2 1.27,3.61c-0.63,-0.1 -1.26,-0.53 -2.02,-1.56c-0.18,-1.08 -0.23,-1.56 -0.29,-2.03c0.23,-0.02 0.46,-0.04 1.04,-0.02z" fill="#C29573" id="svg_251" opacity="1"/>
  <path d="m52.14,84.79c-0.46,-0.59 -0.78,-1.39 -1.11,-2.52c0.17,-0.31 0.35,-0.28 0.79,-0.2c0.33,0.88 0.4,1.69 0.32,2.72z" fill="#B48665" id="svg_252" opacity="1"/>
  <path d="m47.29,81.82c0.37,0.44 0.42,0.92 0.43,1.76c-0.43,0.13 -0.81,-0.11 -1.62,-0.48c-0.42,-0.13 -0.88,-0.17 -0.88,-0.17c0,0 -0.1,-0.49 -0.13,-0.73c0.61,-0.28 1.25,-0.31 2.2,-0.38z" fill="#A26941" id="svg_253" opacity="1"/>
  <path d="m51.03,81.79c-0.18,0.03 -0.25,-0.21 -0.15,-0.59c0.05,-0.12 0.13,0.35 0.15,0.59z" fill="#B48665" id="svg_254" opacity="1"/>
  <path d="m44.96,83.16c0.26,-0.23 0.72,-0.19 0.95,-0.18c0.2,0.75 0.16,1.49 0.1,2.59c-0.81,0.06 -1.59,-0.25 -2.7,-0.6c-0.31,-0.05 -0.42,-0.36 -0.47,-0.52c0.59,-0.46 1.22,-0.77 2.12,-1.29z" fill="#B27956" id="svg_255" opacity="1"/>
  <path d="m45.96,50.73c0.09,0.5 0.07,0.67 0.02,1.12c-0.69,-0.89 -1.33,-2.05 -2.1,-3.52c0.57,0.49 1.28,1.29 2.08,2.4z" fill="#76664D" id="svg_256" opacity="1"/>
  <path d="m56.62,64.28c0.53,0.02 0.82,0.26 1.3,0.7c-0.72,0.97 -1.64,1.72 -2.77,2.67c-1.04,0.17 -1.85,0.14 -2.91,0.17c-0.25,-0.36 -0.25,-0.76 -0.26,-1.47c1.46,-0.82 2.93,-1.34 4.64,-2.07z" fill="#996740" id="svg_257" opacity="1"/>
  <path d="m55.34,63c-0.33,-0.19 -0.32,-0.42 -0.27,-1c0.28,-0.28 0.52,-0.21 1.13,-0.06c0.07,0.39 -0.22,0.7 -0.86,1.06z" fill="#C6966C" id="svg_258" opacity="1"/>
  <path d="m41.16,52.72c0.02,-0.55 0.23,-1.36 0.6,-2.43c-0.03,0.55 -0.23,1.36 -0.6,2.43z" fill="#6D3B19" id="svg_259" opacity="1"/>
  <path d="m73.04,61.92c-0.62,1.39 -1.48,2.59 -2.58,3.97c-0.45,0.17 -0.65,0.15 -1.17,0.12c0.28,-1.47 0.86,-2.91 1.6,-4.66c0.74,-0.07 1.32,0.15 2.15,0.57z" fill="#521D09" id="svg_260" opacity="1"/>
 </g>
</svg>